<?xml version="1.0" encoding="utf-8"?>
<!-- Generator: Adobe Illustrator 17.0.0, SVG Export Plug-In . SVG Version: 6.00 Build 0)  -->
<!DOCTYPE svg PUBLIC "-//W3C//DTD SVG 1.1//EN" "http://www.w3.org/Graphics/SVG/1.1/DTD/svg11.dtd">
<svg version="1.1" id="Layer_1" xmlns="http://www.w3.org/2000/svg" xmlns:xlink="http://www.w3.org/1999/xlink" x="0px" y="0px"
	 width="640px" height="640px" viewBox="0 0 640 640" enable-background="new 0 0 640 640" xml:space="preserve">
<g>
	<path d="M19.707,3.699c-7.89,0.778-14.559,8.15-14.521,16.077v601.086c0,8.409,7.668,16.077,16.04,16.077h367.89
		c8.409,0,16.077-7.668,16.077-16.077v-144.77c0.111-8.52-7.594-16.374-16.077-16.374c-8.52,0-16.226,7.853-16.077,16.374v128.73
		H37.304V35.817h335.735v128.73c-0.148,8.52,7.557,16.374,16.077,16.374c8.483,0,16.188-7.853,16.077-16.374V19.777
		c0-8.409-7.668-16.077-16.077-16.077H21.226H19.707z M151.03,56.525c-8.335,0.445-15.559,8.446-15.188,16.855
		c0.445,8.335,8.372,15.596,16.744,15.262h105.17c8.52,0.148,16.374-7.52,16.374-16.077c0-8.52-7.853-16.188-16.374-16.04h-105.17
		H151.03z M78.238,111.981c-8.446,0-16.077,7.631-16.077,16.04v384.375c0,8.409,7.631,16.04,16.077,16.04h253.904
		c8.372,0,16.077-7.631,16.077-16.04v-35.637c0.148-8.52-7.557-16.374-16.077-16.374c-8.52,0-16.226,7.853-16.04,16.374v19.597
		H94.278V144.061h221.823v20.263c-0.185,8.52,7.52,16.374,16.04,16.374c8.52,0,16.226-7.853,16.077-16.374v-36.304
		c0-8.409-7.705-16.04-16.077-16.04H78.238z M359.628,183.255c-7.816,0.963-14.262,8.409-14.077,16.263v13.225
		c-22.597,3.26-44.491,13.447-61.864,30.821c-17.3,17.263-27.45,39.008-30.747,61.568h-13.003h-1.778
		c-8.372,0.445-15.633,8.557-15.188,16.966c0.482,8.409,8.557,15.633,16.966,15.151h13.003
		c3.297,22.597,13.447,44.491,30.747,61.864c17.374,17.337,39.267,27.265,61.864,30.562V442.9
		c-0.185,8.483,7.557,16.337,16.077,16.337s16.188-7.853,16.077-16.337v-13.225c22.523-3.334,44.268-13.262,61.531-30.562
		c17.374-17.374,27.561-39.267,30.858-61.864h12.966c8.483,0.148,16.374-7.52,16.374-16.04c0-8.557-7.891-16.226-16.374-16.077
		h-12.966c-3.334-22.56-13.484-44.305-30.858-61.568c-17.263-17.337-39.008-27.487-61.531-30.821v-13.225
		C377.891,190.33,368.741,182.106,359.628,183.255 M345.552,244.86v7.891c-0.185,8.52,7.557,16.411,16.077,16.411
		s16.188-7.891,16.077-16.411v-7.891c14.188,3.001,27.783,10.224,38.934,21.338c11.076,11.076,18.078,24.709,21.078,38.934h-7.89
		h-1.556c-8.409,0.408-15.67,8.409-15.299,16.855c0.445,8.372,8.446,15.67,16.855,15.262h8.113
		c-2.964,14.336-10.15,27.783-21.301,38.971c-11.15,11.076-24.746,18.3-38.934,21.301v-7.891
		c0.185-9.187-8.965-17.411-18.078-16.263c-7.816,0.926-14.262,8.372-14.077,16.263v7.891c-14.299-2.964-27.969-10.15-39.156-21.301
		c-11.187-11.187-18.115-24.635-21.152-38.971h7.928c8.52,0.148,16.411-7.52,16.411-16.04c0-8.557-7.891-16.226-16.411-16.077
		h-7.928c3.038-14.225,10.039-27.82,21.152-38.934C317.583,255.047,331.252,247.86,345.552,244.86 M205.19,540.327
		c-14.559,0-26.598,12.077-26.598,26.635c0,14.559,12.04,26.598,26.598,26.598c14.559,0,26.82-12.039,26.82-26.598
		C232.01,552.404,219.748,540.327,205.19,540.327"/>
</g>
</svg>
