<?xml version="1.0" encoding="utf-8"?>
<!-- Generator: Adobe Illustrator 17.0.0, SVG Export Plug-In . SVG Version: 6.00 Build 0)  -->
<!DOCTYPE svg PUBLIC "-//W3C//DTD SVG 1.1//EN" "http://www.w3.org/Graphics/SVG/1.1/DTD/svg11.dtd">
<svg version="1.1" id="Layer_1" xmlns="http://www.w3.org/2000/svg" xmlns:xlink="http://www.w3.org/1999/xlink" x="0px" y="0px"
	 width="640px" height="640px" viewBox="0 0 640 640" enable-background="new 0 0 640 640" xml:space="preserve">
<g>
	<defs>
		<rect id="SVGID_1_" x="3.547" y="8.261" width="630.231" height="630.231"/>
	</defs>
	<clipPath id="SVGID_2_">
		<use xlink:href="#SVGID_1_"  overflow="visible"/>
	</clipPath>
	<path clip-path="url(#SVGID_2_)" d="M581.279,67.336h-85.358V27.959c0-10.89-8.798-19.688-19.688-19.688
		c-10.916,0-19.714,8.798-19.714,19.688v39.377H338.363V27.959c0-10.89-8.823-19.688-19.714-19.688
		c-10.865,0-19.688,8.798-19.688,19.688v39.377H180.805V27.959c0-10.89-8.823-19.688-19.688-19.688
		c-10.89,0-19.714,8.798-19.714,19.688v39.377H56.07c-29.016,0-52.511,23.495-52.511,52.511v466.119
		c0,29.016,23.495,52.536,52.511,52.536h525.209c28.991,0,52.486-23.52,52.486-52.536V119.847
		C633.765,90.831,610.27,67.336,581.279,67.336 M594.388,585.966c0,7.235-5.899,13.134-13.109,13.134H56.07
		c-7.235,0-13.134-5.899-13.134-13.134V119.847c0-7.235,5.899-13.109,13.134-13.109h85.333v39.377
		c0,10.89,8.823,19.714,19.714,19.714c10.865,0,19.688-8.823,19.688-19.714v-39.377h118.156v39.377
		c0,10.89,8.823,19.714,19.688,19.714c10.89,0,19.714-8.823,19.714-19.714v-39.377h118.156v39.377
		c0,10.89,8.798,19.714,19.714,19.714c10.89,0,19.688-8.823,19.688-19.714v-39.377h85.358c7.21,0,13.109,5.874,13.109,13.109
		V585.966z"/>
	<rect x="141.416" y="244.597" clip-path="url(#SVGID_2_)" width="78.779" height="59.09"/>
	<rect x="141.416" y="343.065" clip-path="url(#SVGID_2_)" width="78.779" height="59.09"/>
	<rect x="141.416" y="441.557" clip-path="url(#SVGID_2_)" width="78.779" height="59.09"/>
	<rect x="279.26" y="441.557" clip-path="url(#SVGID_2_)" width="78.779" height="59.09"/>
	<rect x="279.26" y="343.065" clip-path="url(#SVGID_2_)" width="78.779" height="59.09"/>
	<rect x="279.26" y="244.597" clip-path="url(#SVGID_2_)" width="78.779" height="59.09"/>
	<rect x="417.129" y="441.557" clip-path="url(#SVGID_2_)" width="78.779" height="59.09"/>
	<rect x="417.129" y="343.065" clip-path="url(#SVGID_2_)" width="78.779" height="59.09"/>
	<rect x="417.129" y="244.597" clip-path="url(#SVGID_2_)" fill="#050606" width="78.779" height="59.09"/>
</g>
</svg>
