<?xml version="1.0" encoding="utf-8"?>
<!-- Generator: Adobe Illustrator 17.0.0, SVG Export Plug-In . SVG Version: 6.00 Build 0)  -->
<!DOCTYPE svg PUBLIC "-//W3C//DTD SVG 1.1//EN" "http://www.w3.org/Graphics/SVG/1.1/DTD/svg11.dtd">
<svg version="1.1" id="Layer_1" xmlns="http://www.w3.org/2000/svg" xmlns:xlink="http://www.w3.org/1999/xlink" x="0px" y="0px"
	 width="640px" height="640px" viewBox="0 0 640 640" enable-background="new 0 0 640 640" xml:space="preserve">
<g>
	<defs>
		<rect id="SVGID_1_" x="177.211" y="3.652" width="249.493" height="634.348"/>
	</defs>
	<clipPath id="SVGID_2_">
		<use xlink:href="#SVGID_1_"  overflow="visible"/>
	</clipPath>
	<path clip-path="url(#SVGID_2_)" fill="#010101" d="M353.945,138.88H249.935c-40.097,0-72.724,32.619-72.724,72.717V367.63
		c0,22.893,18.636,41.521,41.528,41.521h10.481v187.314c0,22.893,18.636,41.535,41.528,41.535c12.44,0,23.605-5.477,31.217-14.181
		C309.57,632.502,320.734,638,333.16,638c22.893,0,41.535-18.643,41.535-41.535V409.144h10.488
		c22.893,0,41.521-18.643,41.521-41.521V211.596C426.669,171.499,394.043,138.88,353.945,138.88 M406.053,367.63
		c0,11.524-9.374,20.898-20.898,20.898h-10.488V221.999h-20.623v374.458c0,11.524-9.374,20.898-20.898,20.898
		c-11.411,0-20.708-9.198-20.898-20.567v-0.331v-0.275V367.63h-20.623v228.835v0.331c-0.169,11.369-9.487,20.567-20.898,20.567
		c-11.524,0-20.884-9.36-20.884-20.898V221.999h-20.644v166.521h-10.474c-11.524,0-20.884-9.374-20.884-20.898V211.596
		c0-28.729,23.358-52.101,52.093-52.101h104.011c28.729,0,52.122,23.365,52.122,52.101L406.053,367.63z"/>
	<path clip-path="url(#SVGID_2_)" fill="#010101" d="M301.944,3.652c-31.499,0-57.119,25.627-57.119,57.119
		c0,31.499,25.62,57.126,57.119,57.126c31.491,0,57.126-25.627,57.126-57.126C359.069,29.273,333.435,3.652,301.944,3.652
		 M301.944,97.274c-20.116,0-36.496-16.373-36.496-36.503c0-20.13,16.366-36.496,36.496-36.496
		c20.137,0,36.503,16.373,36.503,36.496C338.446,80.894,322.066,97.274,301.944,97.274"/>
</g>
</svg>
