<?xml version="1.0" encoding="utf-8"?>
<!-- Generator: Adobe Illustrator 17.0.0, SVG Export Plug-In . SVG Version: 6.00 Build 0)  -->
<!DOCTYPE svg PUBLIC "-//W3C//DTD SVG 1.1//EN" "http://www.w3.org/Graphics/SVG/1.1/DTD/svg11.dtd">
<svg version="1.1" id="Layer_1" xmlns="http://www.w3.org/2000/svg" xmlns:xlink="http://www.w3.org/1999/xlink" x="0px" y="0px"
	 width="640px" height="640px" viewBox="0 0 640 640" enable-background="new 0 0 640 640" xml:space="preserve">
<path fill="#010101" d="M250.254,489.344c0,8.25-6.683,14.936-14.929,14.936H178.73c-8.246,0-14.929-6.686-14.929-14.936
	c0-8.236,6.683-14.929,14.929-14.929h56.595C243.571,474.415,250.254,481.108,250.254,489.344z M345.948,207.135h56.589
	c8.25,0,14.936-6.686,14.936-14.933c0-8.243-6.686-14.929-14.936-14.929h-56.589c-8.243,0-14.936,6.686-14.936,14.929
	C331.012,200.448,337.705,207.135,345.948,207.135z M345.948,270.371h56.589c8.25,0,14.936-6.686,14.936-14.932
	c0-8.243-6.686-14.929-14.936-14.929h-56.589c-8.243,0-14.936,6.686-14.936,14.929C331.012,263.685,337.705,270.371,345.948,270.371
	z M281.106,303.089H178.73c-8.246,0-14.929,6.683-14.929,14.929c0,8.239,6.683,14.932,14.929,14.932h102.377
	c8.246,0,14.929-6.693,14.929-14.932C296.035,309.772,289.353,303.089,281.106,303.089z M280.136,411.494H178.73
	c-8.246,0-14.932,6.679-14.932,14.929c0,8.243,6.686,14.929,14.932,14.929h101.406c8.243,0,14.933-6.686,14.933-14.929
	C295.069,418.174,288.379,411.494,280.136,411.494z M549.373,434.521v97.4c0,58.744-47.789,106.533-106.532,106.533
	c-27.801,0-53.148-10.703-72.136-28.204H89.131c-8.243,0-14.929-6.679-14.929-14.929V17.77c0-8.246,6.686-14.929,14.929-14.929
	h300.513c3.864-0.048,7.708,1.453,10.578,4.274c0,0.004,0,0.004,0,0.004c0.014,0.011,0.021,0.017,0.035,0.031
	c0,0,0.014,0.01,0.014,0.017c0.007,0.004,0.014,0.011,0.021,0.014c0.007,0.01,0.021,0.024,0.028,0.031l102.376,102.379
	c0.014,0.007,0.021,0.021,0.028,0.031c0,0,0.007,0,0.007,0.007c0.014,0.007,0.021,0.017,0.028,0.024c0,0,0,0,0.007,0.004
	c2.085,2.12,3.454,4.764,4.01,7.562v0.004c0.014,0.028,0.014,0.059,0.021,0.087l0,0c0,0.017,0.007,0.028,0.014,0.045l0,0
	c0.174,0.959,0.265,1.936,0.258,2.919v295.036c10.12,1.223,20.135,2.724,30.039,4.524
	C544.202,421.114,549.373,427.3,549.373,434.521z M404.691,105.217h51.404l-51.404-51.404V105.217z M336.301,531.92v-97.4
	c0-7.221,5.164-13.407,12.268-14.693c30.539-5.532,62.252-8.34,94.265-8.34c11.51,0,22.984,0.362,34.376,1.084V135.075h-87.447
	c-8.243,0-14.929-6.683-14.929-14.926V32.702H104.064v547.689h243.92C340.512,565.844,336.301,549.366,336.301,531.92z
	 M519.508,447.149c-24.979-3.85-50.716-5.803-76.674-5.803c-25.959,0-51.696,1.953-76.675,5.803v84.771
	c0,42.279,34.397,76.668,76.675,76.668s76.674-34.389,76.674-76.668V447.149z M427.904,484.194v25.848h-25.84
	c-8.25,0-14.936,6.686-14.936,14.929c0,8.25,6.686,14.929,14.936,14.929h25.84v25.848c0,8.243,6.686,14.936,14.929,14.936
	c8.243,0,14.929-6.693,14.929-14.936v-25.848h25.848c8.25,0,14.929-6.679,14.929-14.929c0-8.243-6.679-14.929-14.929-14.929h-25.848
	v-25.848c0-8.243-6.686-14.929-14.929-14.929C434.591,469.264,427.904,475.951,427.904,484.194z M402.536,332.951
	c8.25,0,14.936-6.693,14.936-14.932c0-8.246-6.686-14.929-14.936-14.929h-56.589c-8.243,0-14.936,6.683-14.936,14.929
	c0,8.239,6.693,14.932,14.936,14.932H402.536z M281.106,240.509H178.73c-8.246,0-14.929,6.686-14.929,14.929
	c0,8.246,6.683,14.932,14.929,14.932h102.377c8.246,0,14.929-6.686,14.929-14.932C296.035,247.196,289.353,240.509,281.106,240.509z
	 M281.106,177.273H178.73c-8.246,0-14.929,6.686-14.929,14.929c0,8.246,6.683,14.933,14.929,14.933h102.377
	c8.246,0,14.929-6.686,14.929-14.933C296.035,183.959,289.353,177.273,281.106,177.273z"/>
</svg>
