<?xml version="1.0" encoding="utf-8"?>
<!-- Generator: Adobe Illustrator 17.0.0, SVG Export Plug-In . SVG Version: 6.00 Build 0)  -->
<!DOCTYPE svg PUBLIC "-//W3C//DTD SVG 1.1//EN" "http://www.w3.org/Graphics/SVG/1.1/DTD/svg11.dtd">
<svg version="1.1" id="Layer_1" xmlns="http://www.w3.org/2000/svg" xmlns:xlink="http://www.w3.org/1999/xlink" x="0px" y="0px"
	 width="640px" height="640px" viewBox="0 0 640 640" enable-background="new 0 0 640 640" xml:space="preserve">
<g>
	<path stroke="#FFFFFF" stroke-width="0.5" stroke-miterlimit="10" d="M116.894,268.868c-1.947-4.59-3.269-9.771-3.895-14.361
		c-3.303-16.239-3.895-31.261,0-45.587c4.52-18.847,14.952-34.494,26.705-46.213c7.163-7.824,15.613-14.326,24.758-20.203
		c7.128-5.216,14.952-9.11,24.097-12.379c6.502-2.608,13.666-3.895,21.489-3.895c23.437-1.982,41.658,3.895,54.037,11.718
		c18.916,10.432,26.705,24.758,26.705,24.758s42.979,2.608,28.027,91.8c-0.661,4.59-1.947,9.18-3.929,14.361
		c8.45-0.661,18.882,4.555,9.11,38.424c-7.128,25.419-13.666,31.921-18.882,32.547c-4.555,29.974-28.687,67.737-65.79,81.403
		c-15.613,5.877-32.547,5.877-48.195,0c-37.763-13.666-61.234-51.429-65.755-81.403c-5.216-0.626-11.753-7.128-18.916-32.547
		C97.352,272.762,107.784,267.546,116.894,268.868z"/>
	<path stroke="#FFFFFF" stroke-width="0.5" stroke-miterlimit="10" d="M3.577,535.893c0,0,2.608,30.635,4.555,44.266
		c0,0,77.508,50.837,207.766,50.837s207.766-50.837,207.766-50.837c2.608-13.631,4.555-44.266,4.555-44.266
		c1.287-22.776,0-69.023-40.406-78.795c-53.376-13.7-97.015-44.3-97.015-44.3L256.93,520.28l-6.502,20.168l-5.877,16.934
		l-17.595-50.803c43.64-61.234-9.11-60.574-11.718-60.574c-3.234,0-56.019-0.661-11.718,60.574l-17.595,50.803l-5.842-16.934
		l-6.537-20.168l-33.834-107.482c0,0-43.64,30.6-97.05,44.3C3.577,466.869,1.63,513.117,3.577,535.893z"/>
	<path d="M638.618,183.515v133.527c0,15.682-13.04,28.687-28.653,28.687H452.967l-49.481,49.447
		c-2.608,2.643-7.163,0.695-7.163-3.199v-46.248h-6.537c-15.613,0-28.653-13.005-28.653-28.687V183.515
		c0-15.613,13.04-28.618,28.653-28.618h220.18C625.578,154.897,638.618,167.902,638.618,183.515z"/>
	<path fill="#FFFFFF" d="M596.919,283.197c0-1.947-1.287-3.269-3.234-3.269h-94.477c-1.947,0-3.234,1.321-3.234,3.269v11.718
		c0,1.947,1.287,3.234,3.234,3.234h94.477c1.947,0,3.234-1.287,3.234-3.234V283.197z"/>
	<path fill="#FFFFFF" d="M596.919,244.113c0-1.947-1.287-3.269-3.234-3.269h-94.477c-1.947,0-3.234,1.321-3.234,3.269v11.718
		c0,1.947,1.287,3.269,3.234,3.269h94.477c1.947,0,3.234-1.321,3.234-3.269V244.113z"/>
	<path fill="#FFFFFF" d="M596.919,204.399c0-1.982-1.287-3.303-3.234-3.303h-94.477c-1.947,0-3.234,1.321-3.234,3.303v11.684
		c0,1.982,1.287,3.269,3.234,3.269h94.477c1.947,0,3.234-1.287,3.234-3.269V204.399z"/>
</g>
<text transform="matrix(1 0 0 1 388.6689 297.1431)" fill="#FFFFFF" font-family="'MyriadPro-Regular'" font-size="140.9402">₹</text>
</svg>
