<?xml version="1.0" encoding="utf-8"?>
<!-- Generator: Adobe Illustrator 17.0.0, SVG Export Plug-In . SVG Version: 6.00 Build 0)  -->
<!DOCTYPE svg PUBLIC "-//W3C//DTD SVG 1.1//EN" "http://www.w3.org/Graphics/SVG/1.1/DTD/svg11.dtd">
<svg version="1.1" id="Layer_1" xmlns="http://www.w3.org/2000/svg" xmlns:xlink="http://www.w3.org/1999/xlink" x="0px" y="0px"
	 width="640px" height="640px" viewBox="0 0 640 640" enable-background="new 0 0 640 640" xml:space="preserve">
<path fill="#010101" d="M62.129,5.102c-30.047,0-54.806,10.824-54.806,40.864v548.067c0,30.04,24.759,40.864,54.806,40.864h403.545
	c30.047,0,54.813-10.824,54.813-40.864V45.967c0-30.04-24.766-40.864-54.813-40.864H62.129z M48.187,27.703h431.428
	c10.442,0,18.27,7.828,18.27,18.263v548.067c0,10.435,6.113,18.263-4.329,18.263H48.187c-10.435,0-18.27-7.828-18.27-18.263V45.967
	C29.917,35.531,37.752,27.703,48.187,27.703z M263.901,87.057c-27.564,0.109-49.804,22.785-49.627,50.628
	c-0.177,28.12,22.063,50.796,49.627,50.654c27.569,0.142,49.803-22.534,49.626-50.654
	C313.705,109.841,291.471,87.165,263.901,87.057z M211.32,202.28c-34.894,0.142-65.651,58.686-65.535,94.541h236.239
	c0.121-35.855-30.648-94.399-65.542-94.541H211.32z M72.762,368.626v22.171h378.657v-22.171H72.762z M72.762,443.113v22.171h378.657
	v-22.171H72.762z M72.762,517.599v22.173h378.657v-22.173H72.762z"/>
</svg>
