<?xml version="1.0" encoding="utf-8"?>
<!-- Generator: Adobe Illustrator 17.0.0, SVG Export Plug-In . SVG Version: 6.00 Build 0)  -->
<!DOCTYPE svg PUBLIC "-//W3C//DTD SVG 1.1//EN" "http://www.w3.org/Graphics/SVG/1.1/DTD/svg11.dtd">
<svg version="1.1" id="Layer_1" xmlns="http://www.w3.org/2000/svg" xmlns:xlink="http://www.w3.org/1999/xlink" x="0px" y="0px"
	 width="640px" height="640px" viewBox="0 0 640 640" enable-background="new 0 0 640 640" xml:space="preserve">
<g>
	<path d="M173.76,290.121c4.354,4.354,10.884,4.354,15.238,0l52.285-52.245v238.468c0,6.531,4.314,10.884,10.884,10.884
		c6.531,0,10.884-4.354,10.884-10.884V237.875l52.285,52.245c4.314,4.354,10.884,4.354,15.199,0c4.393-4.314,4.393-10.884,0-15.199
		l-78.368-78.447l-78.408,78.447C169.367,279.236,169.367,285.806,173.76,290.121"/>
	<path stroke="#FFFFFF" stroke-width="0.25" stroke-miterlimit="10" d="M173.76,290.121c4.354,4.354,10.884,4.354,15.238,0
		l52.285-52.245v238.468c0,6.531,4.314,10.884,10.884,10.884c6.531,0,10.884-4.354,10.884-10.884V237.875l52.285,52.245
		c4.314,4.354,10.884,4.354,15.199,0c4.393-4.314,4.393-10.884,0-15.199l-78.368-78.447l-78.408,78.447
		C169.367,279.236,169.367,285.806,173.76,290.121z"/>
	<path d="M181.356,148.595h141.577c6.57,0,10.884,4.314,10.884,10.884c0,6.531-4.314,10.884-10.884,10.884H181.356
		c-6.531,0-10.884-4.354-10.884-10.884C170.471,152.909,175.933,148.595,181.356,148.595"/>
	<path stroke="#FFFFFF" stroke-width="0.25" stroke-miterlimit="10" d="M181.356,148.595h141.577c6.57,0,10.884,4.314,10.884,10.884
		c0,6.531-4.314,10.884-10.884,10.884H181.356c-6.531,0-10.884-4.354-10.884-10.884
		C170.471,152.909,175.933,148.595,181.356,148.595z"/>
	<path d="M475.869,627.214H29.409c-6.531,0-10.884-4.354-10.884-10.884V19.545c0-6.531,4.354-10.884,10.884-10.884h346.284
		c3.246,0,5.422,1.108,7.599,3.285l99.108,99.108c2.177,2.177,3.246,4.314,3.246,7.599v497.676
		C485.645,621.752,481.291,627.214,475.869,627.214 M40.293,605.445h423.583V123.007L371.339,30.43H40.293V605.445z"/>
	<path stroke="#FFFFFF" stroke-width="0.25" stroke-miterlimit="10" d="M475.869,627.214H29.409
		c-6.531,0-10.884-4.354-10.884-10.884V19.545c0-6.531,4.354-10.884,10.884-10.884h346.284c3.246,0,5.422,1.108,7.599,3.285
		l99.108,99.108c2.177,2.177,3.246,4.314,3.246,7.599v497.676C485.645,621.752,481.291,627.214,475.869,627.214z M40.293,605.445
		h423.583V123.007L371.339,30.43H40.293V605.445z"/>
	<path d="M475.885,129.526L475.885,129.526h-99.108c-6.57,0-10.884-4.314-10.884-10.884V19.533c0-4.314,2.137-8.708,6.531-9.776
		c4.354-2.137,8.708-1.108,11.953,2.177l98,98c2.177,2.216,3.285,5.422,3.285,8.708C486.73,125.211,481.307,129.526,475.885,129.526
		 M387.661,107.757h60.953l-60.953-62.061V107.757z"/>
	<path stroke="#FFFFFF" stroke-width="0.25" stroke-miterlimit="10" d="M475.885,129.526L475.885,129.526h-99.108
		c-6.57,0-10.884-4.314-10.884-10.884V19.533c0-4.314,2.137-8.708,6.531-9.776c4.354-2.137,8.708-1.108,11.953,2.177l98,98
		c2.177,2.216,3.285,5.422,3.285,8.708C486.73,125.211,481.307,129.526,475.885,129.526z M387.661,107.757h60.953l-60.953-62.061
		V107.757z"/>
</g>
</svg>
