<?xml version="1.0" encoding="utf-8"?>
<!-- Generator: Adobe Illustrator 17.0.0, SVG Export Plug-In . SVG Version: 6.00 Build 0)  -->
<!DOCTYPE svg PUBLIC "-//W3C//DTD SVG 1.1//EN" "http://www.w3.org/Graphics/SVG/1.1/DTD/svg11.dtd">
<svg version="1.1" id="Layer_1" xmlns="http://www.w3.org/2000/svg" xmlns:xlink="http://www.w3.org/1999/xlink" x="0px" y="0px"
	 width="640px" height="640px" viewBox="0 0 640 640" enable-background="new 0 0 640 640" xml:space="preserve">
<g>
	<path d="M108.713,529.199c-15.847-15.847-22.108-38.796-17.627-66.588c-10.742-0.229-25.24,6.853-40.941,22.542
		c-22.927,22.986-30.103,65.481-30.103,65.481c0.868,0.866,8.717-0.338,19.243-3.697C14.311,584.517,6.17,633.608,6.17,633.608
		c2.602,2.673,48.31-7.008,84.916-31.644c-2.698,9.356-3.805,15.894-3.805,15.894c1.975,1.963,42.529-7.127,65.456-30.078
		c15.751-15.726,22.781-30.224,22.589-40.941C147.487,551.294,124.56,545.021,108.713,529.199z"/>
	<path d="M515.802,508.259l-38.917-140.449C595.66,229.131,633.132,4.755,633.132,4.755C622.2-6.201,407.578,41.119,269.97,160.979
		l-140.305-38.87c-24.853-6.912-50.717,7.719-57.557,32.608L45.859,249.47c-6.937,24.887,7.635,50.692,32.559,57.604l61.94,17.134
		c-36.172,73.634-33.232,134.32,2.915,170.421c36.147,36.16,96.812,39.134,170.431,2.962l17.196,61.927
		c6.888,24.89,32.655,39.496,57.557,32.584l94.74-26.239C508.096,558.964,522.74,533.149,515.802,508.259z M401.46,160.316
		c21.048-20.988,55.148-20.988,76.102,0c21.048,21.048,21.048,55.114,0,76.161c-20.954,20.988-55.054,20.988-76.102,0
		C380.461,215.429,380.461,181.363,401.46,160.316z"/>
</g>
</svg>
