<?xml version="1.0" encoding="utf-8"?>
<!-- Generator: Adobe Illustrator 17.0.0, SVG Export Plug-In . SVG Version: 6.00 Build 0)  -->
<!DOCTYPE svg PUBLIC "-//W3C//DTD SVG 1.1//EN" "http://www.w3.org/Graphics/SVG/1.1/DTD/svg11.dtd">
<svg version="1.1" id="Layer_1" xmlns="http://www.w3.org/2000/svg" xmlns:xlink="http://www.w3.org/1999/xlink" x="0px" y="0px"
	 width="640px" height="640px" viewBox="0 0 640 640" enable-background="new 0 0 640 640" xml:space="preserve">
<g>
	<polygon fill="none" stroke="#000000" stroke-width="0.5" stroke-miterlimit="10" points="602.438,561.36 550.759,508.337 
		550.759,549.065 91.309,549.065 91.309,77.937 130.996,77.937 79.284,24.949 27.606,77.937 67.293,77.937 67.293,573.655 
		550.759,573.655 550.759,614.348 	"/>
</g>
<polygon fill="none" stroke="#000000" stroke-width="0.5" stroke-miterlimit="10" points="321.774,42.997 244.75,148.344 
	398.865,148.344 "/>
<polygon fill="none" stroke="#000000" stroke-width="0.5" stroke-miterlimit="10" points="257.099,507.265 148.122,395.491 
	129.964,525.882 "/>
<polygon fill="none" stroke="#000000" stroke-width="0.5" stroke-miterlimit="10" points="513.699,525.889 495.473,395.498 
	386.53,507.272 "/>
<g>
	<path fill="none" stroke="#000000" stroke-width="0.5" stroke-miterlimit="10" d="M321.774,465.203
		c78.863,0,143.044-65.772,143.044-146.599c0-80.896-64.181-146.669-143.044-146.669c-78.829,0-142.976,65.772-142.976,146.669
		C178.798,399.431,242.945,465.203,321.774,465.203z"/>
</g>
<text transform="matrix(0.9753 0 0 1 257.0986 424.918)" fill="#FFFFFF" stroke="#000000" stroke-miterlimit="10" font-family="'MyriadPro-Regular'" font-size="272.1105">₹</text>
</svg>
