<?xml version="1.0" encoding="utf-8"?>
<!-- Generator: Adobe Illustrator 17.0.0, SVG Export Plug-In . SVG Version: 6.00 Build 0)  -->
<!DOCTYPE svg PUBLIC "-//W3C//DTD SVG 1.1//EN" "http://www.w3.org/Graphics/SVG/1.1/DTD/svg11.dtd">
<svg version="1.1" id="Layer_1" xmlns="http://www.w3.org/2000/svg" xmlns:xlink="http://www.w3.org/1999/xlink" x="0px" y="0px"
	 width="640px" height="640px" viewBox="0 0 640 640" enable-background="new 0 0 640 640" xml:space="preserve">
<path d="M486.745,369.677c-8.34-8.226-26.855-12.586-55.068-12.968c-19.07-0.192-42.062,1.491-66.201,4.857
	c-10.826-6.236-21.996-13.008-30.72-21.193c-23.526-21.998-43.189-52.486-55.43-86.076c0.803-3.136,1.473-5.89,2.141-8.683
	c0,0,13.237-75.324,9.737-100.803c-0.478-3.481-0.783-4.515-1.722-7.229l-1.167-2.946c-3.594-8.34-10.673-17.138-21.767-16.641
	l-6.483-0.231h-0.172c-12.357,0-22.456,6.313-25.096,15.761c-8.032,29.648,0.249,74.024,15.303,131.446l-3.864,9.372
	c-10.788,26.242-24.254,52.676-36.151,76.012l-1.569,3.022c-12.508,24.483-23.87,45.294-34.161,62.93l-10.636,5.623
	c-0.783,0.421-19.013,10.062-23.296,12.626c-36.267,21.651-60.292,46.25-64.27,65.76c-1.261,6.234-0.325,14.193,6.16,17.865
	l10.252,5.202c4.476,2.219,9.182,3.367,14.003,3.367c25.821,0,55.832-32.173,97.128-104.283
	c47.666-15.532,101.99-28.461,149.58-35.54c36.304,20.429,80.871,34.582,109.065,34.582c4.973,0,9.296-0.458,12.816-1.414
	c5.394-1.416,9.946-4.476,12.72-8.685c5.451-8.224,6.562-19.548,5.089-31.139C492.483,376.869,489.73,372.623,486.745,369.677z
	 M100.903,507.166c4.705-12.892,23.373-38.37,50.937-60.94c1.722-1.416,5.986-5.433,9.927-9.143
	C132.923,483.064,113.603,501.39,100.903,507.166z M264.214,131.117c8.301,0,13.006,20.924,13.427,40.511
	c0.384,19.626-4.207,33.397-9.907,43.612c-4.707-15.111-7.002-38.868-7.002-54.437C260.732,160.803,260.407,131.117,264.214,131.117
	z M215.477,399.094c5.796-10.367,11.821-21.269,17.981-32.861c14.996-28.348,24.464-50.536,31.521-68.745
	c14.022,25.518,31.486,47.208,52.028,64.575c2.564,2.143,5.241,4.323,8.111,6.503C283.341,376.83,247.286,386.853,215.477,399.094z
	 M478.712,396.722c-2.527,1.608-9.833,2.525-14.5,2.525c-15.111,0-33.816-6.924-60.061-18.171
	c10.099-0.727,19.318-1.109,27.602-1.109c15.168,0,19.663-0.039,34.486,3.71C481.082,387.466,481.274,395.116,478.712,396.722z
	 M524.349,130.964l-87.451-87.453C417.846,24.462,380.242,8.89,353.31,8.89H59.51c-26.932,0-48.967,22.035-48.967,48.967v528.84
	c0,26.932,22.035,48.967,48.967,48.967h450.494c26.932,0,48.967-22.035,48.967-48.967V214.55
	C558.97,187.619,543.381,149.977,524.349,130.964z M496.653,158.66c1.912,1.914,3.825,4.246,5.661,6.924H402.277V65.51
	c2.677,1.874,5.012,3.786,6.924,5.7L496.653,158.66z M519.797,586.697c0,5.318-4.476,9.793-9.793,9.793H59.51
	c-5.318,0-9.793-4.476-9.793-9.793V57.857c0-5.316,4.476-9.793,9.793-9.793h293.8c2.946,0,6.274,0.384,9.793,1.034v155.659h155.661
	c0.65,3.52,1.032,6.81,1.032,9.793V586.697z"/>
</svg>
