<?xml version="1.0" encoding="utf-8"?>
<!-- Generator: Adobe Illustrator 17.0.0, SVG Export Plug-In . SVG Version: 6.00 Build 0)  -->
<!DOCTYPE svg PUBLIC "-//W3C//DTD SVG 1.1//EN" "http://www.w3.org/Graphics/SVG/1.1/DTD/svg11.dtd">
<svg version="1.1" id="Layer_1" xmlns="http://www.w3.org/2000/svg" xmlns:xlink="http://www.w3.org/1999/xlink" x="0px" y="0px"
	 width="640px" height="640px" viewBox="0 0 640 640" enable-background="new 0 0 640 640" xml:space="preserve">
<g>
	<defs>
		<rect id="SVGID_1_" x="7" y="2" width="623.435" height="634.77"/>
	</defs>
	<clipPath id="SVGID_2_">
		<use xlink:href="#SVGID_1_"  overflow="visible"/>
	</clipPath>
	<path clip-path="url(#SVGID_2_)" fill="#1C2021" d="M573.759,2c-31.251,0-56.676,25.413-56.676,56.653
		c0,19.689,10.122,37.055,25.402,47.211l-107.163,282.45c-2.97-0.487-5.951-0.918-9.046-0.918c-13.579,0-25.89,4.999-35.66,12.99
		l-107.231-88.562c4.228-7.935,6.846-16.844,6.846-26.445c0-31.251-25.425-56.676-56.676-56.676s-56.676,25.425-56.676,56.676
		c0,16.878,7.572,31.897,19.326,42.303L81.948,526.694c-5.758-1.984-11.834-3.287-18.261-3.287C32.425,523.407,7,548.82,7,580.06
		c0,31.274,25.425,56.71,56.687,56.71c31.251,0,56.665-25.436,56.665-56.71c0-16.663-7.357-31.5-18.85-41.884l114.383-199.227
		c5.6,1.859,11.46,3.106,17.672,3.106c13.455,0,25.652-4.908,35.377-12.752l107.344,88.652c-4.115,7.867-6.676,16.651-6.676,26.116
		c0,31.251,25.425,56.676,56.676,56.676s56.676-25.425,56.676-56.676c0-20.109-10.598-37.689-26.434-47.766L563.523,114.32
		c3.333,0.612,6.733,1.031,10.236,1.031c31.251,0,56.676-25.436,56.676-56.699C630.435,27.413,605.01,2,573.759,2 M63.687,614.1
		c-18.748,0-34.017-15.268-34.017-34.039c0-18.737,15.268-33.983,34.017-33.983c18.737,0,33.994,15.246,33.994,33.983
		C97.681,598.831,82.424,614.1,63.687,614.1 M233.556,319.385c-18.748,0-34.006-15.257-34.006-34.006s15.257-34.006,34.006-34.006
		c18.76,0,34.006,15.257,34.006,34.006S252.316,319.385,233.556,319.385 M426.277,478.077c-18.748,0-34.006-15.257-34.006-34.006
		s15.257-34.006,34.006-34.006c18.76,0,34.006,15.257,34.006,34.006S445.037,478.077,426.277,478.077 M573.759,92.681
		c-18.748,0-34.006-15.268-34.006-34.028c0-18.737,15.257-33.983,34.006-33.983c18.748,0,34.005,15.246,34.005,33.983
		C607.764,77.413,592.507,92.681,573.759,92.681"/>
</g>
</svg>
