<?xml version="1.0" encoding="utf-8"?>
<!-- Generator: Adobe Illustrator 17.0.0, SVG Export Plug-In . SVG Version: 6.00 Build 0)  -->
<!DOCTYPE svg PUBLIC "-//W3C//DTD SVG 1.1//EN" "http://www.w3.org/Graphics/SVG/1.1/DTD/svg11.dtd">
<svg version="1.1" id="Layer_1" xmlns="http://www.w3.org/2000/svg" xmlns:xlink="http://www.w3.org/1999/xlink" x="0px" y="0px"
	 width="640px" height="640px" viewBox="0 0 640 640" enable-background="new 0 0 640 640" xml:space="preserve">
<g>
	<path fill="#010101" d="M292.001,165.261c-44.337,0-80.509-36.044-80.509-80.499c0-44.337,36.045-80.504,80.509-80.504
		c44.455,0,80.499,36.044,80.499,80.504C372.371,129.218,336.327,165.261,292.001,165.261z M292.001,38.167
		c-25.75,0-46.724,20.975-46.724,46.72s20.975,46.719,46.724,46.719c25.74,0,46.714-20.974,46.714-46.719
		C338.715,59.013,317.741,38.167,292.001,38.167z"/>
	<path fill="#010101" d="M328.292,636.347h-72.592c-8.789,0-16.071-6.782-16.823-15.574l-6.539-84.522
		c-0.247-3.26-3.012-5.777-6.271-5.777h-18.339c-9.798,0-17.586-8.412-16.833-18.21l24.363-314.096
		c0.634-8.792,8.045-15.574,16.833-15.574h119.812c8.789,0,16.079,6.782,16.832,15.574l24.363,314.096
		c0.753,9.798-7.034,18.21-16.832,18.21h-18.339c-3.26,0-6.024,2.516-6.272,5.777l-6.529,84.522
		C344.372,629.566,337.08,636.347,328.292,636.347z M277.179,602.562h29.634c3.269,0,6.033-2.507,6.281-5.776l6.53-84.522
		c0.634-8.788,8.044-15.57,16.832-15.57h14.693c3.646,0,6.529-3.14,6.282-6.782l-20.726-267.757
		c-0.248-3.264-3.012-5.776-6.272-5.776h-76.992c-3.27,0-6.024,2.512-6.282,5.776l-20.717,267.757
		c-0.258,3.642,2.636,6.782,6.282,6.782h14.693c8.788,0,16.07,6.782,16.823,15.57l6.53,84.522
		C271.146,600.055,273.79,602.562,277.179,602.562z"/>
</g>
</svg>
