<?xml version="1.0" encoding="utf-8"?>
<!-- Generator: Adobe Illustrator 17.0.0, SVG Export Plug-In . SVG Version: 6.00 Build 0)  -->
<!DOCTYPE svg PUBLIC "-//W3C//DTD SVG 1.1//EN" "http://www.w3.org/Graphics/SVG/1.1/DTD/svg11.dtd">
<svg version="1.1" id="Layer_1" xmlns="http://www.w3.org/2000/svg" xmlns:xlink="http://www.w3.org/1999/xlink" x="0px" y="0px"
	 width="640px" height="640px" viewBox="0 0 640 640" enable-background="new 0 0 640 640" xml:space="preserve">
<g>
	<g>
		<g>
			<g>
				<path fill="#010101" stroke="#010101" stroke-width="2" stroke-miterlimit="10" d="M637.427,461.984
					c-1.361-13.533-5.341-26.534-11.847-38.386c-6.609-12.166-15.424-22.868-26.435-31.57
					c-15.517-12.48-34.077-20.136-53.594-22.023c-7.651-0.737-15.198-0.629-22.652,0.211V80.953c0-8.079-6.496-14.683-14.683-14.683
					H371.976V10.79c0-2.309-1.887-4.196-4.187-4.196c-2.309,0-4.196,1.887-4.196,4.196V66.27H163.685V10.79
					c0-2.309-1.783-4.196-4.191-4.196c-2.31,0-4.201,1.887-4.201,4.196V66.27H19.158c-8.181,0-14.682,6.604-14.682,14.683v414.699
					c0,8.073,6.501,14.682,14.682,14.682h420.154c13.527,34.19,45.201,59.677,83.07,64.291c0.732,0.109,1.464,0.211,2.197,0.211
					c3.567,0.418,7.021,0.521,10.589,0.521c7.247,0,14.476-0.732,21.394-2.201C607.857,562.252,642.674,514.422,637.427,461.984z
					 M525.208,566.547c-0.526-0.104-1.052-0.104-1.99-0.309c-33.458-4.093-61.676-26.013-74.781-55.904
					c-1.258-2.727-2.413-5.453-3.248-8.392c-2.206-6.29-3.577-13.002-4.309-19.822c-2.619-27.163,5.877-53.068,24.023-73.101
					c13.218-14.683,30.622-24.647,49.603-28.843c2.835-0.629,5.567-1.154,8.393-1.464c4.093-0.526,8.082-0.84,12.166-0.84
					c3.144,0,6.402,0.206,9.65,0.525c17.939,1.676,34.931,8.703,49.191,20.137c10.072,8.073,18.249,17.827,24.229,29.049
					c6.073,10.909,9.753,22.76,11.012,35.242c4.712,48.139-27.168,92.082-74.255,102.155
					C545.344,566.969,535.798,567.598,525.208,566.547z M12.865,80.953c0-3.464,2.731-6.294,6.294-6.294h136.134v55.481
					c0,2.309,1.891,4.196,4.201,4.196c2.408,0,4.191-1.887,4.191-4.196V74.659h199.908v55.481c0,2.309,1.887,4.196,4.196,4.196
					c2.3,0,4.187-1.887,4.187-4.196V74.659h136.241c3.464,0,6.29,2.83,6.29,6.294v122.08H12.865V80.953z M19.158,501.942
					c-3.562,0-6.294-2.83-6.294-6.29V211.425h501.641v160.152c-21.385,4.299-40.902,15.31-55.79,31.776
					c-19.826,21.817-29.054,50.135-26.116,79.607c0.629,6.5,1.887,12.899,3.774,18.982H19.158z"/>
			</g>
		</g>
		<g>
			<g>
				<path fill="#010101" stroke="#010101" stroke-width="2" stroke-miterlimit="10" d="M580.06,468.278h-40.902v-40.901
					c0-2.315-1.784-4.197-4.196-4.197c-2.31,0-4.197,1.882-4.197,4.197v40.901h-40.798c-2.309,0-4.196,1.887-4.196,4.197
					c0,2.304,1.887,4.191,4.196,4.191h40.798v40.798c0,2.31,1.887,4.197,4.197,4.197c2.412,0,4.196-1.887,4.196-4.197v-40.798
					h40.902c2.309,0,4.196-1.887,4.196-4.191C584.256,470.165,582.369,468.278,580.06,468.278z"/>
			</g>
		</g>
	</g>
</g>
</svg>
