<?xml version="1.0" encoding="utf-8"?>
<!-- Generator: Adobe Illustrator 17.0.0, SVG Export Plug-In . SVG Version: 6.00 Build 0)  -->
<!DOCTYPE svg PUBLIC "-//W3C//DTD SVG 1.1//EN" "http://www.w3.org/Graphics/SVG/1.1/DTD/svg11.dtd">
<svg version="1.1" id="Layer_1" xmlns="http://www.w3.org/2000/svg" xmlns:xlink="http://www.w3.org/1999/xlink" x="0px" y="0px"
	 width="640px" height="640px" viewBox="0 0 640 640" enable-background="new 0 0 640 640" xml:space="preserve">
<g>
	<path fill="#010101" d="M313.839,165.966c-44.861,0-81.461-36.475-81.461-81.461c0-44.867,36.47-81.466,81.461-81.466
		s81.467,36.475,81.467,81.466C395.306,129.491,358.706,165.966,313.839,165.966z M313.839,37.352
		c-26.053,0-47.277,21.225-47.277,47.278s21.224,47.277,47.277,47.277s47.278-21.224,47.278-47.277
		C361.117,58.447,339.892,37.352,313.839,37.352z"/>
	<path fill="#010101" d="M350.569,639h-73.46c-8.894,0-16.268-6.863-17.03-15.76l-14.232-182.63
		c-0.256-3.304-3.053-5.846-6.357-5.846h-28.85c-9.405,0-17.03-7.625-17.03-17.029v-217.2c0-9.404,7.625-17.029,17.03-17.029
		h206.396c9.405,0,17.03,7.625,17.03,17.029V417.61c0,9.404-7.625,17.029-17.03,17.029h-28.85c-3.304,0-6.101,2.542-6.352,5.846
		L367.598,623.24C366.837,632.137,359.467,639,350.569,639z M298.845,604.811h29.993c3.304,0,6.101-2.542,6.352-5.845
		l14.237-182.629c0.637-8.898,8.131-15.761,17.029-15.761h27.196c3.56,0,6.357-2.922,6.357-6.352V224.047
		c0-3.559-2.922-6.351-6.357-6.351H234.027c-3.559,0-6.352,2.922-6.352,6.351v170.177c0,3.56,2.923,6.352,6.352,6.352h27.2
		c8.894,0,16.263,6.863,17.03,15.761l14.232,182.629C292.744,602.269,295.411,604.811,298.845,604.811z"/>
</g>
</svg>
