<?xml version="1.0" encoding="utf-8"?>
<!-- Generator: Adobe Illustrator 17.0.0, SVG Export Plug-In . SVG Version: 6.00 Build 0)  -->
<!DOCTYPE svg PUBLIC "-//W3C//DTD SVG 1.1//EN" "http://www.w3.org/Graphics/SVG/1.1/DTD/svg11.dtd">
<svg version="1.1" id="Layer_1" xmlns="http://www.w3.org/2000/svg" xmlns:xlink="http://www.w3.org/1999/xlink" x="0px" y="0px"
	 width="640px" height="640px" viewBox="0 0 640 640" enable-background="new 0 0 640 640" xml:space="preserve">
<rect x="8.877" y="11.884" width="29.486" height="618.691"/>
<rect x="8.877" y="601.089" width="618.613" height="29.486"/>
<g>
	<defs>
		<rect id="SVGID_1_" x="8.877" y="11.884" width="627.478" height="618.691"/>
	</defs>
	<clipPath id="SVGID_2_">
		<use xlink:href="#SVGID_1_"  overflow="visible"/>
	</clipPath>
	<path clip-path="url(#SVGID_2_)" d="M218.03,147.436c16.285,0,29.486,13.2,29.486,29.447c0,16.285-13.2,29.486-29.486,29.486
		c-16.285,0-29.447-13.2-29.447-29.486C188.584,160.636,201.745,147.436,218.03,147.436"/>
	<path clip-path="url(#SVGID_2_)" d="M159.145,359.526c16.246,0,29.408,13.161,29.408,29.447c0,16.285-13.161,29.486-29.408,29.486
		c-16.285,0-29.447-13.2-29.447-29.486C129.698,372.687,142.859,359.526,159.145,359.526"/>
	<path clip-path="url(#SVGID_2_)" d="M265.188,421.387c16.246,0,29.447,13.2,29.447,29.486c0,16.246-13.2,29.408-29.447,29.408
		c-16.285,0-29.447-13.161-29.447-29.408C235.741,434.587,248.902,421.387,265.188,421.387"/>
	<path clip-path="url(#SVGID_2_)" d="M545.028,418.45c16.285,0,29.447,13.2,29.447,29.447c0,16.285-13.161,29.447-29.447,29.447
		c-16.246,0-29.447-13.161-29.447-29.447C515.581,431.65,528.782,418.45,545.028,418.45"/>
	<path clip-path="url(#SVGID_2_)" d="M438.966,480.272c16.285,0,29.486,13.2,29.486,29.486c0,16.246-13.2,29.447-29.486,29.447
		c-16.285,0-29.447-13.2-29.447-29.447C409.519,493.472,422.68,480.272,438.966,480.272"/>
	<path clip-path="url(#SVGID_2_)" d="M492.016,238.74c16.285,0,29.447,13.2,29.447,29.447c0,16.285-13.161,29.486-29.447,29.486
		s-29.486-13.2-29.486-29.486C462.531,251.94,475.731,238.74,492.016,238.74"/>
	<polygon clip-path="url(#SVGID_2_)" points="434.56,528.937 210.704,193.074 26.565,234.315 19.223,206.352 223.943,160.659 
		443.387,490.586 536.218,436.106 617.215,363.935 636.352,384.555 552.386,461.14 	"/>
	<polygon clip-path="url(#SVGID_2_)" points="32.446,506.778 14.794,483.268 157.653,371.3 263.723,433.162 486.096,253.436 
		627.51,253.436 627.51,282.961 496.406,282.961 266.652,468.544 159.137,406.644 	"/>
</g>
</svg>
