<?xml version="1.0" encoding="utf-8"?>
<!-- Generator: Adobe Illustrator 17.0.0, SVG Export Plug-In . SVG Version: 6.00 Build 0)  -->
<!DOCTYPE svg PUBLIC "-//W3C//DTD SVG 1.1//EN" "http://www.w3.org/Graphics/SVG/1.1/DTD/svg11.dtd">
<svg version="1.1" id="Layer_1" xmlns="http://www.w3.org/2000/svg" xmlns:xlink="http://www.w3.org/1999/xlink" x="0px" y="0px"
	 width="640px" height="640px" viewBox="0 0 640 640" enable-background="new 0 0 640 640" xml:space="preserve">
<g>
	<path d="M318.46,636.816c-20.132,0-34.507-16.343-47.953-30.718c-7.689-8.617-16.306-18.201-23.029-20.132
		c-6.723-1.894-19.166,1.931-30.681,5.757c-11.515,3.826-23.958,7.726-35.472,7.726c-7.689,0-14.375-1.969-20.132-4.829
		c-17.272-9.62-21.098-30.681-24.924-49.884c-2.897-11.515-4.829-24.961-9.583-29.752c-4.829-4.829-18.275-7.652-29.752-9.62
		c-18.238-3.826-40.264-8.58-49.847-24.849c-9.62-16.343-2.897-37.441,2.86-54.713c3.826-11.515,7.689-23.958,5.757-30.718
		c-1.931-6.723-11.515-15.266-20.132-22.955c-14.375-12.443-30.718-27.821-30.718-47.953c0-20.132,16.343-34.507,30.718-47.953
		c8.617-7.652,18.2-16.269,20.132-22.992c1.931-6.723-1.931-20.132-5.757-30.681c-5.757-18.275-12.48-38.332-2.86-54.676
		c9.583-17.272,30.644-21.135,49.847-24.924c11.477-2.897,24.924-4.792,29.752-9.62c4.754-4.829,7.652-18.2,9.583-29.752
		c3.826-18.126,8.58-40.264,24.924-49.884c5.757-2.823,12.443-4.754,20.132-4.754c11.515,0,23.958,3.826,35.472,7.652
		c11.515,3.9,24.961,7.689,30.681,5.832c6.723-1.931,15.34-11.552,23.029-20.206c12.443-14.375,27.821-30.681,47.953-30.681
		s34.507,16.306,47.916,30.681c7.726,8.655,16.343,18.275,23.029,20.206c6.723,1.857,19.203-1.931,30.681-5.832
		c11.515-3.826,23.995-7.652,35.51-7.652c7.652,0,14.375,1.931,20.132,4.754c17.235,9.62,21.135,30.755,24.924,49.884
		c2.897,11.552,4.792,24.924,9.583,29.752c4.792,4.829,18.238,7.689,29.752,9.62c18.201,3.789,40.264,8.58,49.81,24.924
		c9.62,16.343,2.934,37.367-2.823,54.676c-3.826,11.477-7.689,23.958-5.757,30.681c1.931,6.723,11.515,15.34,20.132,22.992
		c14.375,12.443,30.681,27.821,30.681,47.953c0,20.132-16.306,34.507-30.681,47.953c-8.617,7.689-18.201,16.232-20.132,22.955
		c-1.932,6.76,1.931,20.206,5.757,30.718c5.757,18.238,12.443,38.37,2.823,54.713c-9.546,17.235-30.644,21.023-49.81,24.849
		c-11.515,2.934-24.961,4.792-29.752,9.62c-4.792,4.792-7.652,18.238-9.583,29.752c-3.789,18.2-8.617,40.264-24.924,49.884
		c-5.757,2.86-12.48,4.829-20.132,4.829c-11.515,0-23.995-3.9-35.51-7.726c-11.477-3.826-24.924-7.652-30.681-5.757
		c-6.686,1.931-15.303,11.515-23.029,20.132C352.967,620.473,338.592,636.816,318.46,636.816 M244.618,557.18
		c3.863,0,7.689,0,11.515,0.966c14.375,3.863,25.852,16.306,36.438,28.786c8.617,9.583,19.166,21.061,25.889,21.061
		c6.686,0,17.272-11.477,25.889-21.061c10.549-12.48,22.026-24.924,36.438-28.786c3.826-0.966,7.652-0.966,11.515-0.966
		c11.515,0,23.995,3.9,35.472,7.689c9.583,2.897,19.166,6.723,26.855,6.723c1.931,0,3.826,0,5.757-1.003
		c5.757-3.826,8.617-18.163,11.515-30.681c3.826-16.269,6.686-32.575,18.201-44.053c10.549-10.512,27.784-14.412,44.127-18.238
		c12.443-2.934,27.784-5.757,30.681-11.515c2.86-5.72-1.932-20.132-4.792-31.684c-4.792-15.303-10.549-32.575-6.723-46.95
		c3.826-14.412,16.343-25.964,28.749-36.475c9.62-8.617,21.135-19.129,21.135-25.852c0-6.723-11.515-17.309-21.135-25.889
		c-12.406-10.586-24.924-22.101-28.749-36.512c-3.826-15.303,0.929-31.572,6.723-46.95c3.863-11.515,8.617-25.889,5.72-31.572
		c-3.826-5.832-18.201-8.692-30.681-11.552c-16.269-3.863-32.575-6.723-44.09-18.238c-10.549-10.586-14.375-27.821-18.2-44.127
		c-2.897-12.443-5.757-27.784-11.515-30.644c-0.966-1.003-2.897-1.003-5.757-1.003c-6.723,0-17.272,2.897-26.892,6.797
		c-11.477,3.789-23.921,7.614-35.435,7.614c-3.863,0-7.689,0-11.515-0.966c-14.412-3.826-25.889-16.306-36.475-28.786
		c-8.58-9.62-19.129-21.098-25.852-21.098c-6.723,0-18.238,10.549-26.855,20.206c-10.586,12.406-22.063,24.849-36.438,28.712
		c-3.826,0.966-7.652,0.966-11.515,0.966c-11.515,0-23.995-3.826-35.51-7.652c-9.546-2.897-19.166-6.723-26.818-6.723
		c-1.931,0-3.826,0-5.757,0.929c-5.757,3.863-8.617,18.238-11.515,30.681c-3.826,16.306-6.686,32.612-18.2,44.127
		c-10.549,10.586-27.821,14.412-44.127,18.238c-12.48,2.86-27.821,5.757-30.681,11.515c-2.897,5.757,1.894,20.169,4.792,31.647
		c4.792,15.34,10.549,32.575,6.723,46.987c-3.826,14.375-16.343,25.852-28.786,36.438c-9.583,8.617-21.098,19.166-21.098,25.889
		c0,6.686,11.515,17.235,21.098,25.852c12.443,10.586,24.961,22.101,28.786,36.438c3.826,15.378-0.966,31.647-6.723,46.987
		c-3.863,11.515-8.655,25.889-5.757,31.647c3.826,5.794,18.2,8.692,30.681,11.515c16.269,3.9,32.612,6.723,44.09,18.238
		c10.549,10.512,14.412,27.821,18.275,44.127c2.86,12.443,5.72,27.784,11.477,30.681c0.966,0.929,2.897,0.929,5.757,0.929
		c6.723,0,17.235-2.823,26.855-6.649C220.623,561.08,233.104,557.18,244.618,557.18"/>
	<polygon points="386.757,235.908 407.111,256.263 250.476,412.898 230.121,392.58 	"/>
	<path d="M262.811,310.738c-28.749,0-51.779-23.029-51.779-51.779c0-28.749,23.029-51.779,51.779-51.779
		s51.816,23.029,51.816,51.779C314.627,287.709,290.632,310.738,262.811,310.738 M262.811,235.001
		c-12.443,0-22.992,10.512-22.992,22.955c0,12.518,10.549,23.029,22.992,23.029c12.517,0,23.029-10.512,23.029-23.029
		C285.84,245.513,275.329,235.001,262.811,235.001"/>
	<path d="M382.712,435.463c-28.749,0-51.816-23.029-51.816-51.853c0-28.786,23.066-51.779,51.816-51.779
		s51.779,22.992,51.779,51.779C434.49,412.434,411.461,435.463,382.712,435.463 M382.712,360.618
		c-12.443,0-23.029,10.549-23.029,22.992c0,12.48,10.586,22.992,23.029,22.992s22.992-10.512,22.992-22.992
		C405.704,371.167,395.155,360.618,382.712,360.618"/>
</g>
</svg>
