<?xml version="1.0" encoding="utf-8"?>
<!-- Generator: Adobe Illustrator 17.0.0, SVG Export Plug-In . SVG Version: 6.00 Build 0)  -->
<!DOCTYPE svg PUBLIC "-//W3C//DTD SVG 1.1//EN" "http://www.w3.org/Graphics/SVG/1.1/DTD/svg11.dtd">
<svg version="1.1" id="Layer_1" xmlns="http://www.w3.org/2000/svg" xmlns:xlink="http://www.w3.org/1999/xlink" x="0px" y="0px"
	 width="640px" height="640px" viewBox="0 0 640 640" enable-background="new 0 0 640 640" xml:space="preserve">
<g>
	<defs>
		<rect id="SVGID_1_" x="134.165" y="4.565" width="280.828" height="635.435"/>
	</defs>
	<clipPath id="SVGID_2_">
		<use xlink:href="#SVGID_1_"  overflow="visible"/>
	</clipPath>
	<path clip-path="url(#SVGID_2_)" fill="#010101" d="M413.859,351.816c0-0.014-0.014-0.028-0.014-0.028L376.694,195.94v-0.035
		c-7.844-32.908-36.996-55.889-70.864-55.889h-62.511c-33.868,0-63.005,22.981-70.856,55.889c0,0.007,0,0.021-0.007,0.028
		l-37.158,155.883v0.014c-5.302,22.296,8.529,44.762,30.832,50.085l10.244,2.45L165.53,449.91c-0.12,0.445-0.205,0.925-0.261,1.398
		c-0.148,1.2-0.071,2.386,0.191,3.516c0.346,1.532,1.031,2.923,1.97,4.109c0.932,1.172,2.118,2.16,3.509,2.838
		c1.045,0.522,2.189,0.868,3.389,1.01c0.48,0.064,0.939,0.078,1.433,0.078h25.989v0.085v135.465
		c0,22.932,18.66,41.592,41.585,41.592c12.447,0,23.638-5.486,31.27-14.177C282.221,634.5,293.405,640,305.859,640
		c22.932,0,41.592-18.66,41.592-41.592V462.929v-0.085h25.445c0.466,0,0.925-0.014,1.391-0.071c1.228-0.148,2.386-0.48,3.445-1.031
		c1.363-0.678,2.549-1.645,3.474-2.817c0.953-1.186,1.624-2.591,1.97-4.123c0.261-1.116,0.332-2.288,0.191-3.474
		c-0.056-0.494-0.148-0.967-0.275-1.433l-10.809-45.426l10.767-2.563C405.345,396.584,419.169,374.126,413.859,351.816
		 M264.253,462.929v135.458v0.332c-0.177,11.388-9.503,20.602-20.941,20.602c-11.536,0-20.927-9.383-20.927-20.934V462.929v-0.085
		h41.867V462.929z M326.764,462.929v135.458c0,11.551-9.376,20.934-20.934,20.934c-11.431,0-20.743-9.214-20.919-20.602v-0.332
		v-0.275V462.929v-0.085h41.853V462.929z M367.467,384.37l-38.93-163.487l-20.108,4.794l51.561,216.516H188.596l51.554-216.516
		l-20.108-4.78l-38.888,163.345l-10.251-2.443c-11.226-2.676-18.187-13.972-15.511-25.205l37.165-155.904
		c0-0.007,0-0.014,0.007-0.028c5.634-23.553,26.497-39.996,50.749-39.996h62.518c24.259,0,45.136,16.45,50.756,40.003v0.021
		l37.165,155.876v0.028c2.662,11.233-4.271,22.529-15.511,25.205L367.467,384.37z"/>
	<path clip-path="url(#SVGID_2_)" fill="#010101" d="M274.582,4.565c-31.552,0-57.216,25.671-57.216,57.223
		c0,31.545,25.671,57.216,57.216,57.216c31.538,0,57.216-25.671,57.216-57.216C331.805,30.229,306.134,4.565,274.582,4.565
		 M274.582,98.339c-20.157,0-36.558-16.401-36.558-36.558c0-20.164,16.394-36.565,36.558-36.565
		c20.157,0,36.558,16.401,36.558,36.565C311.14,81.945,294.739,98.339,274.582,98.339"/>
</g>
</svg>
