<?xml version="1.0" encoding="utf-8"?>
<!-- Generator: Adobe Illustrator 17.0.0, SVG Export Plug-In . SVG Version: 6.00 Build 0)  -->
<!DOCTYPE svg PUBLIC "-//W3C//DTD SVG 1.1//EN" "http://www.w3.org/Graphics/SVG/1.1/DTD/svg11.dtd">
<svg version="1.1" id="Layer_1" xmlns="http://www.w3.org/2000/svg" xmlns:xlink="http://www.w3.org/1999/xlink" x="0px" y="0px"
	 width="640px" height="640px" viewBox="0 0 640 640" enable-background="new 0 0 640 640" xml:space="preserve">
<g>
	<path fill="#010101" d="M523.661,309.899c-21.314,0-38.631-17.35-38.631-38.631c0-21.314,17.317-38.664,38.631-38.664
		c21.314,0,38.664,17.35,38.664,38.664C562.325,292.549,544.975,309.899,523.661,309.899 M523.661,245.438
		c-14.231,0-25.83,11.534-25.83,25.83c0,14.231,11.599,25.862,25.83,25.862c14.263,0,25.862-11.632,25.862-25.862
		C549.524,256.972,537.925,245.438,523.661,245.438"/>
	<path fill="#010101" d="M455.824,393.393h-7.408C450.723,394.628,453.485,394.628,455.824,393.393"/>
	<path fill="#010101" d="M571.032,456.119c0.032-0.325,0.032-0.65,0.097-0.942l6.206-45.162l-6.303-7.538V456.119z"/>
	<polygon fill="#010101" points="475.146,393.393 476.316,393.393 476.316,392.288 	"/>
	<path fill="#010101" d="M614.963,390.547L581.4,350.389V68.24h13.094c3.509,0,6.368-2.859,6.368-6.368V13.364
		c0-3.477-2.859-6.401-6.368-6.401H13.725c-3.574,0-6.433,2.924-6.433,6.401v48.508c0,3.509,2.892,6.368,6.433,6.368h13.029v318.732
		c0,3.574,2.859,6.401,6.401,6.401h264.538v60.075c-4.516,2.372-7.668,6.921-7.668,12.346c0,7.765,6.271,14.068,14.068,14.068
		c7.765,0,14.068-6.303,14.068-14.068c0-5.426-3.152-9.975-7.7-12.346v-60.075h117.583l10.754,9
		c7.7,6.531,19.949,6.206,27.422-0.747l8.935-8.253l1.17-1.137v1.137v97.667c0,2.859,1.884,5.263,4.451,6.076v123.887
		c0,8.058,7.31,14.588,16.245,14.588c4.776,0,11.859-1.917,18.292-10.819c0.78-1.072,1.235-2.437,1.235-3.769V497.441h9.227v123.627
		c0,1.56,0.585,3.087,1.625,4.224c4.289,4.809,10.267,10.365,18.65,10.365c8.967,0,16.245-6.596,16.245-14.588V497.441h2.307
		c3.541,0,6.401-2.859,6.401-6.368v-31.029c0.357,3.736,1.754,7.31,4.061,10.429c3.379,4.386,8.22,7.245,13.711,7.993
		c11.372,1.592,21.834-6.531,23.296-17.675l7.473-54.162C620.356,400.846,618.699,394.933,614.963,390.547 M20.093,19.862h567.935
		v35.577h-12.996H33.155H20.093V19.862z M39.588,380.572V68.24h529.011v266.878l-6.693-7.993c-3.964-4.711-9.747-7.44-15.855-7.44
		h-44.447c-5.166,0-10.202,1.982-14.068,5.621l-36.162,33.66l-24.368-20.404c-8.415-7.083-22.126-5.816-29.112,2.534
		c-3.574,4.256-5.263,9.65-4.776,15.108c0.487,5.556,3.087,10.494,7.343,14.068l12.314,10.299H39.588z M571.133,455.171
		c-0.065,0.325-0.097,0.65-0.13,0.942v-53.642l6.303,7.538L571.133,455.171z M599.4,459.069c-0.52,3.899-3.672,6.531-8.87,6.726
		c-2.079-0.292-3.964-1.332-5.231-3.054c-1.267-1.657-1.787-3.704-1.495-5.783l6.628-47.956c0.227-1.819-0.292-3.574-1.43-4.971
		l-10.105-12.054l-9.357-11.209c-0.227-0.292-0.617-0.325-0.91-0.617c-1.755-1.43-4.061-2.079-6.206-1.332
		c-0.942,0.39-1.592,1.105-2.274,1.754c-1.137,1.202-1.949,2.599-1.949,4.289v8.545v91.266h-2.242c-3.574,0-6.433,2.859-6.433,6.401
		v129.995c0,1.267-5.166,3.314-10.917-2.534v-127.46c0-3.541-2.859-6.401-6.368-6.401h-22.126c-3.509,0-6.368,2.859-6.368,6.401
		v127.785c-1.787,2.079-4.094,3.996-6.726,3.996c-2.112,0-3.444-1.137-3.444-1.787V491.073c0-2.827-1.884-5.263-4.451-6.076v-91.591
		v-12.834v-2.989c0-2.567-1.495-4.874-3.834-5.881c-2.404-1.04-5.069-0.52-6.921,1.202l-8.253,7.733l-12.606,11.697
		c-0.52,0.455-1.105,0.78-1.69,1.072c-2.339,1.235-5.101,1.235-7.408,0c-0.455-0.227-0.975-0.39-1.365-0.747l-14.361-12.086
		l-24.043-20.112c-1.625-1.332-2.599-3.282-2.794-5.328c-0.195-2.112,0.455-4.126,1.852-5.783c1.462-1.819,3.671-2.827,6.011-2.827
		c1.332,0,3.249,0.357,5.036,1.917l28.754,24.043c2.469,2.047,6.076,1.949,8.448-0.227l40.256-37.559
		c1.527-1.365,3.444-2.177,5.393-2.177h44.447c2.339,0,4.549,1.04,6.011,2.827l16.538,19.787l12.801,15.271l23.751,28.397
		c1.397,1.657,2.047,3.899,1.722,6.108L599.4,459.069z"/>
	<path fill="#010101" d="M383.942,332.502c-1.495,0-3.022-0.585-4.191-1.592l-4.126-3.606c-2.664-2.339-2.924-6.368-0.617-9.032
		c2.372-2.664,6.368-2.892,9.032-0.617l4.126,3.639c2.632,2.339,2.924,6.368,0.585,9
		C387.484,331.755,385.697,332.502,383.942,332.502"/>
	<path fill="#010101" d="M351.016,303.644c-1.495,0-2.989-0.487-4.224-1.592l-8.642-7.57c-2.632-2.339-2.924-6.401-0.585-9
		c2.339-2.632,6.368-2.957,9.032-0.617l8.643,7.57c2.664,2.339,2.924,6.401,0.585,9C354.558,302.93,352.771,303.644,351.016,303.644
		 M313.587,270.829c-1.495,0-2.989-0.52-4.224-1.56l-8.642-7.57c-2.632-2.372-2.892-6.401-0.585-9.032
		c2.372-2.632,6.401-2.924,9.032-0.585l8.642,7.538c2.632,2.339,2.924,6.368,0.585,9.032
		C317.129,270.082,315.374,270.829,313.587,270.829 M276.158,238.013c-1.495,0-3.022-0.52-4.191-1.56l-8.675-7.538
		c-2.632-2.372-2.892-6.401-0.585-9.065c2.372-2.599,6.401-2.924,9.065-0.585l8.61,7.57c2.632,2.372,2.924,6.401,0.585,9.032
		C279.699,237.299,277.945,238.013,276.158,238.013"/>
	<path fill="#010101" d="M238.735,205.269c-1.495,0-2.989-0.552-4.191-1.624l-4.126-3.606c-2.697-2.307-2.957-6.368-0.617-9.032
		c2.372-2.664,6.401-2.892,9.032-0.552l4.126,3.574c2.632,2.372,2.892,6.368,0.552,9.032
		C242.277,204.49,240.522,205.269,238.735,205.269"/>
	<path fill="#010101" d="M202.69,145.175H99.858c-2.014,0-3.639-1.625-3.639-3.639c0-2.047,1.625-3.704,3.639-3.704H202.69
		c2.014,0,3.639,1.657,3.639,3.704C206.329,143.485,204.705,145.175,202.69,145.175"/>
	<path fill="#010101" d="M214.715,172.019H99.861c-2.014,0-3.639-1.625-3.639-3.639c0-2.047,1.625-3.639,3.639-3.639h114.854
		c1.982,0,3.639,1.592,3.639,3.639C218.354,170.394,216.697,172.019,214.715,172.019"/>
	<path fill="#010101" d="M192.472,198.862H99.841c-1.982,0-3.606-1.592-3.606-3.606c0-2.047,1.625-3.671,3.606-3.671h92.631
		c2.014,0,3.671,1.625,3.671,3.671C196.143,197.27,194.486,198.862,192.472,198.862"/>
	<path fill="#010101" d="M202.69,225.735H99.858c-2.014,0-3.639-1.624-3.639-3.639c0-2.047,1.625-3.671,3.639-3.671H202.69
		c2.014,0,3.639,1.625,3.639,3.671C206.329,224.111,204.705,225.735,202.69,225.735"/>
	<path fill="#010101" d="M214.715,252.579H99.861c-2.014,0-3.639-1.624-3.639-3.639c0-1.982,1.625-3.639,3.639-3.639h114.854
		c1.982,0,3.639,1.657,3.639,3.639C218.354,250.954,216.697,252.579,214.715,252.579"/>
</g>
</svg>
