<?xml version="1.0" encoding="utf-8"?>
<!-- Generator: Adobe Illustrator 17.0.0, SVG Export Plug-In . SVG Version: 6.00 Build 0)  -->
<!DOCTYPE svg PUBLIC "-//W3C//DTD SVG 1.1//EN" "http://www.w3.org/Graphics/SVG/1.1/DTD/svg11.dtd">
<svg version="1.1" id="Layer_1" xmlns="http://www.w3.org/2000/svg" xmlns:xlink="http://www.w3.org/1999/xlink" x="0px" y="0px"
	 width="640px" height="640px" viewBox="0 0 640 640" enable-background="new 0 0 640 640" xml:space="preserve">
<path d="M535.58,383.423c-13.772-14.337-30.369-22.004-47.962-22.004c-17.458,0-34.216,7.532-48.553,21.869l-44.841,44.707
	c-3.685-1.991-7.397-3.847-10.948-5.676c-5.111-2.555-9.926-4.976-14.041-7.532c-42.017-26.684-80.187-61.465-116.797-106.441
	c-17.754-22.434-29.67-41.317-38.332-60.47c11.647-10.652,22.434-21.708,32.925-32.36c3.981-3.981,7.962-8.097,11.916-12.078
	c29.805-29.805,29.805-68.405,0-98.21l-38.735-38.735c-4.412-4.412-8.957-8.957-13.208-13.504
	c-8.5-8.796-17.458-17.861-26.684-26.388c-13.772-13.638-30.235-20.874-47.531-20.874c-17.323,0-34.081,7.236-48.257,20.874
	c-0.161,0.134-0.161,0.134-0.296,0.296L35.978,75.56c-18.157,18.184-28.54,40.322-30.8,66.011
	c-3.416,41.452,8.796,80.053,18.157,105.311c22.999,62.03,57.349,119.514,108.593,181.113
	c62.164,74.215,136.972,132.829,222.404,174.147c32.656,15.467,76.206,33.786,124.894,36.906c2.986,0.134,6.106,0.269,8.957,0.269
	c32.79,0,60.308-11.782,81.882-35.184c0.134-0.296,0.43-0.43,0.565-0.726c7.397-8.931,15.898-17.027,24.855-25.689
	c6.106-5.81,12.347-11.916,18.453-18.292c14.042-14.633,21.412-31.661,21.412-49.118c0-17.592-7.505-34.485-21.842-48.688
	L535.58,383.423z M586.393,532.876C586.258,532.876,586.258,533.011,586.393,532.876c-5.541,5.972-11.217,11.352-17.323,17.323
	c-9.227,8.796-18.587,18.023-27.384,28.379c-14.337,15.333-31.23,22.569-53.368,22.569c-2.125,0-4.412,0-6.537-0.134
	c-42.151-2.717-81.317-19.179-110.691-33.221c-80.348-38.896-150.879-94.094-209.492-164.086
	C113.179,345.388,80.819,291.454,59.407,233.54c-13.208-35.346-18.023-62.864-15.898-88.849
	c1.399-16.597,7.801-30.369,19.583-42.151l48.392-48.392c6.967-6.537,14.337-10.087,21.573-10.087
	c8.958,0,16.193,5.407,20.713,9.926c0.161,0.161,0.296,0.296,0.43,0.43c8.662,8.097,16.893,16.462,25.554,25.42
	c4.411,4.546,8.931,9.065,13.477,13.746l38.762,38.762c15.037,15.037,15.037,28.944,0,44.007
	c-4.116,4.116-8.097,8.231-12.212,12.185c-11.916,12.212-23.268,23.564-35.615,34.646c-0.296,0.269-0.565,0.43-0.726,0.699
	c-12.212,12.212-9.926,24.129-7.37,32.225c0.134,0.43,0.269,0.861,0.43,1.264c10.06,24.425,24.263,47.424,45.837,74.807l0.134,0.134
	c39.192,48.257,80.483,85.89,126.05,114.699c5.81,3.685,11.782,6.671,17.458,9.495c5.111,2.555,9.926,4.976,14.041,7.532
	c0.565,0.269,1.13,0.699,1.695,0.995c4.842,2.421,9.388,3.551,14.068,3.551c11.782,0,19.152-7.397,21.573-9.791l48.526-48.553
	c4.842-4.815,12.508-10.652,21.439-10.652c8.796,0,16.032,5.541,20.444,10.383c0.134,0.134,0.134,0.134,0.269,0.269l78.223,78.196
	C600.865,502.937,600.865,517.84,586.393,532.876"/>
</svg>
