<?xml version="1.0" encoding="utf-8"?>
<!-- Generator: Adobe Illustrator 17.0.0, SVG Export Plug-In . SVG Version: 6.00 Build 0)  -->
<!DOCTYPE svg PUBLIC "-//W3C//DTD SVG 1.1//EN" "http://www.w3.org/Graphics/SVG/1.1/DTD/svg11.dtd">
<svg version="1.1" id="Layer_1" xmlns="http://www.w3.org/2000/svg" xmlns:xlink="http://www.w3.org/1999/xlink" x="0px" y="0px"
	 width="640px" height="640px" viewBox="0 0 640 640" enable-background="new 0 0 640 640" xml:space="preserve">
<g>
	<path d="M625.027,363.404H189.67v-19.011c0-6.305-5.11-11.407-11.405-11.407c-6.297,0-11.407,5.102-11.407,11.407v19.011H17.141
		c-6.297,0-11.407,5.103-11.407,11.407v68.934c0,6.306,5.11,11.409,11.407,11.409h149.716v19.009c0,6.306,5.11,11.409,11.407,11.409
		c6.295,0,11.405-5.102,11.405-11.409v-19.009h435.356c6.297,0,11.407-5.102,11.407-11.409v-68.934
		C636.434,368.515,631.323,363.404,625.027,363.404z M28.547,432.346v-46.12h138.311v46.12H28.547z M613.62,432.346H189.67v-46.12
		H613.62V432.346z"/>
	<path d="M472.611,295.383c0,6.304,5.11,11.407,11.407,11.407c6.295,0,11.405-5.103,11.405-11.407c0-7.247,2.069-10.22,5.514-15.14
		c4.053-5.817,9.612-13.78,9.612-28.205c0-14.418-5.552-22.381-9.612-28.198c-3.437-4.92-5.514-7.893-5.514-15.14
		c0-7.247,2.069-10.22,5.514-15.14c4.053-5.818,9.612-13.78,9.612-28.198c0-6.304-5.11-11.406-11.407-11.406
		c-6.297,0-11.407,5.102-11.407,11.406c0,7.247-2.068,10.22-5.513,15.141c-4.054,5.817-9.612,13.779-9.612,28.197
		c0,14.418,5.552,22.38,9.612,28.197c3.437,4.921,5.513,7.894,5.513,15.141c0,7.254-2.068,10.228-5.513,15.148
		C478.162,273.003,472.611,280.964,472.611,295.383z"/>
	<path d="M535.788,295.383c0,6.304,5.11,11.407,11.407,11.407c6.297,0,11.407-5.103,11.407-11.407c0-7.247,2.068-10.22,5.512-15.14
		c4.053-5.817,9.612-13.78,9.612-28.205c0-14.418-5.552-22.381-9.612-28.198c-3.437-4.92-5.512-7.893-5.512-15.14
		c0-7.247,2.068-10.22,5.512-15.14c4.053-5.818,9.612-13.78,9.612-28.198c0-6.304-5.11-11.406-11.407-11.406
		c-6.297,0-11.407,5.102-11.407,11.406c0,7.247-2.068,10.22-5.513,15.141c-4.053,5.817-9.612,13.779-9.612,28.197
		c0,14.418,5.551,22.38,9.612,28.197c3.437,4.921,5.513,7.894,5.513,15.141c0,7.254-2.068,10.228-5.513,15.148
		C541.348,273.003,535.788,280.964,535.788,295.383z"/>
	<path d="M621.788,208.699c0-7.247,2.068-10.22,5.513-15.14c4.053-5.818,9.612-13.78,9.612-28.198
		c0-6.304-5.11-11.406-11.407-11.406c-6.297,0-11.405,5.102-11.405,11.406c0,7.247-2.069,10.22-5.514,15.141
		c-4.053,5.817-9.612,13.779-9.612,28.197c0,14.418,5.552,22.38,9.612,28.197c3.437,4.921,5.514,7.894,5.514,15.141
		c0,7.254-2.069,10.228-5.514,15.148c-4.053,5.817-9.612,13.779-9.612,28.197c0,6.304,5.11,11.407,11.407,11.407
		c6.297,0,11.407-5.103,11.407-11.407c0-7.247,2.068-10.22,5.513-15.14c4.053-5.817,9.612-13.78,9.612-28.205
		c0-14.418-5.552-22.381-9.612-28.198C623.855,218.912,621.788,215.947,621.788,208.699z"/>
</g>
<path d="M499.457,607.791c6.292,7.894,4.99,19.391-2.904,25.682l0,0c-7.894,6.291-19.393,4.992-25.682-2.904L103.36,169.392
	c-6.291-7.894-4.992-19.393,2.902-25.682l0,0c7.894-6.291,19.393-4.992,25.683,2.902L499.457,607.791z"/>
</svg>
