<?xml version="1.0" encoding="utf-8"?>
<!-- Generator: Adobe Illustrator 17.0.0, SVG Export Plug-In . SVG Version: 6.00 Build 0)  -->
<!DOCTYPE svg PUBLIC "-//W3C//DTD SVG 1.1//EN" "http://www.w3.org/Graphics/SVG/1.1/DTD/svg11.dtd">
<svg version="1.1" id="Layer_1" xmlns="http://www.w3.org/2000/svg" xmlns:xlink="http://www.w3.org/1999/xlink" x="0px" y="0px"
	 width="640px" height="640px" viewBox="0 0 640 640" enable-background="new 0 0 640 640" xml:space="preserve">
<g sketch:type="MSPage">
	<g sketch:type="MSLayerGroup">
		<path sketch:type="MSShapeGroup" d="M3.357,190.171l281.034,348.87l-127.474-348.87H3.357"/>
		<path sketch:type="MSShapeGroup" d="M181.955,190.171L317.78,561.88l138.47-371.709H181.955"/>
		<path sketch:type="MSShapeGroup" d="M348.028,548.049l288.29-357.878H481.359L348.028,548.049"/>
		<path sketch:type="MSShapeGroup" d="M526.356,2H344.547l124.652,153.418L526.356,2"/>
		<path sketch:type="MSShapeGroup" d="M448.018,166.65L319.838,8.904L191.669,166.65H448.018"/>
		<path sketch:type="MSShapeGroup" d="M295.128,2H113.202l56.44,154.442L295.128,2"/>
		<path sketch:type="MSShapeGroup" d="M93.597,16.889L0.005,166.65H148.32L93.597,16.889"/>
		<path sketch:type="MSShapeGroup" d="M639.67,166.65L545.972,16.724L490.121,166.65H639.67"/>
	</g>
</g>
</svg>
