<?xml version="1.0" encoding="utf-8"?>
<!-- Generator: Adobe Illustrator 17.0.0, SVG Export Plug-In . SVG Version: 6.00 Build 0)  -->
<!DOCTYPE svg PUBLIC "-//W3C//DTD SVG 1.1//EN" "http://www.w3.org/Graphics/SVG/1.1/DTD/svg11.dtd">
<svg version="1.1" id="Layer_1" xmlns="http://www.w3.org/2000/svg" xmlns:xlink="http://www.w3.org/1999/xlink" x="0px" y="0px"
	 width="640px" height="640px" viewBox="0 0 640 640" enable-background="new 0 0 640 640" xml:space="preserve">
<g>
	<path d="M503.757,396.189c-12.96-13.492-28.578-20.706-45.133-20.706c-16.428,0-32.198,7.088-45.69,20.579l-42.197,42.07
		c-3.468-1.873-6.961-3.62-10.302-5.341c-4.809-2.405-9.341-4.683-13.213-7.088c-39.539-25.111-75.458-57.84-109.909-100.164
		c-16.707-21.111-27.92-38.881-36.071-56.904c10.961-10.024,21.111-20.428,30.983-30.452c3.746-3.746,7.493-7.619,11.214-11.366
		c28.047-28.047,28.047-64.371,0-92.418l-36.451-36.451c-4.151-4.151-8.429-8.429-12.429-12.707
		c-7.999-8.277-16.428-16.808-25.111-24.832c-12.96-12.834-28.452-19.643-44.728-19.643c-16.302,0-32.072,6.809-45.412,19.643
		c-0.152,0.127-0.152,0.127-0.278,0.278l-45.412,45.791C16.532,123.593,6.761,144.426,4.634,168.6
		c-3.215,39.007,8.277,75.332,17.086,99.101c21.643,58.372,53.967,112.466,102.189,170.433
		c58.498,69.839,128.894,124.996,209.288,163.877c30.73,14.555,71.712,31.793,117.528,34.729c2.81,0.127,5.746,0.253,8.429,0.253
		c30.857,0,56.752-11.087,77.053-33.109c0.127-0.278,0.405-0.405,0.532-0.683c6.961-8.404,14.96-16.023,23.389-24.174
		c5.746-5.468,11.619-11.214,17.365-17.213c13.213-13.77,20.149-29.793,20.149-46.222c0-16.555-7.062-32.451-20.554-45.817
		L503.757,396.189z M551.573,536.829C551.447,536.829,551.447,536.955,551.573,536.829c-5.214,5.62-10.556,10.682-16.302,16.302
		c-8.682,8.277-17.491,16.96-25.769,26.705c-13.492,14.428-29.388,21.238-50.221,21.238c-2,0-4.151,0-6.151-0.127
		c-39.666-2.557-76.521-18.048-104.163-31.262c-75.61-36.603-141.981-88.545-197.138-154.41
		c-45.563-54.879-76.015-105.631-96.164-160.13c-12.429-33.261-16.96-59.157-14.96-83.609c1.316-15.618,7.341-28.578,18.428-39.666
		l45.538-45.538c6.556-6.151,13.492-9.492,20.301-9.492c8.429,0,15.238,5.088,19.491,9.341c0.152,0.152,0.278,0.278,0.405,0.405
		c8.151,7.619,15.897,15.492,24.047,23.921c4.151,4.278,8.404,8.53,12.682,12.935l36.476,36.476c14.15,14.15,14.15,27.237,0,41.412
		c-3.873,3.873-7.619,7.746-11.492,11.467c-11.214,11.492-21.896,22.174-33.514,32.603c-0.278,0.253-0.532,0.405-0.683,0.658
		c-11.492,11.492-9.341,22.706-6.936,30.325c0.127,0.405,0.253,0.81,0.405,1.19c9.467,22.984,22.832,44.627,43.133,70.396
		l0.127,0.127c36.881,45.412,75.737,80.825,118.617,107.935c5.468,3.468,11.087,6.278,16.428,8.935
		c4.81,2.405,9.341,4.683,13.213,7.088c0.532,0.253,1.063,0.658,1.595,0.937c4.556,2.278,8.834,3.341,13.239,3.341
		c11.087,0,18.023-6.961,20.301-9.214l45.665-45.69c4.556-4.531,11.771-10.024,20.174-10.024c8.277,0,15.087,5.214,19.238,9.771
		c0.127,0.127,0.127,0.127,0.253,0.253l73.61,73.585C565.192,508.655,565.192,522.679,551.573,536.829"/>
	<path d="M345.619,154.706c34.983,5.873,66.776,22.427,92.165,47.816c25.364,25.364,41.792,57.157,47.816,92.165
		c1.468,8.809,9.062,14.96,17.744,14.96c1.088,0,2.025-0.152,3.088-0.278c9.872-1.595,16.428-10.961,14.833-20.833
		c-7.214-42.349-27.262-80.951-57.84-111.529s-69.181-50.626-111.529-57.84c-9.872-1.595-19.111,4.961-20.833,14.707
		C329.317,143.618,335.747,153.111,345.619,154.706"/>
	<path d="M635.716,283.326c-11.897-69.712-44.753-133.172-95.228-183.646c-50.499-50.5-113.934-83.356-183.646-95.228
		c-9.746-1.747-18.959,4.936-20.706,14.682c-1.595,9.897,4.936,19.111,14.833,20.833c62.219,10.556,118.997,40.071,164.13,85.077
		c45.159,45.158,74.547,101.91,85.077,164.155c1.493,8.809,9.087,14.96,17.77,14.96c1.063,0,2-0.127,3.088-0.253
		C630.78,302.438,637.463,293.072,635.716,283.326"/>
</g>
</svg>
