<?xml version="1.0" encoding="utf-8"?>
<!-- Generator: Adobe Illustrator 17.0.0, SVG Export Plug-In . SVG Version: 6.00 Build 0)  -->
<!DOCTYPE svg PUBLIC "-//W3C//DTD SVG 1.1//EN" "http://www.w3.org/Graphics/SVG/1.1/DTD/svg11.dtd">
<svg version="1.1" id="Layer_1" xmlns="http://www.w3.org/2000/svg" xmlns:xlink="http://www.w3.org/1999/xlink" x="0px" y="0px"
	 width="640px" height="640px" viewBox="0 0 640 640" enable-background="new 0 0 640 640" xml:space="preserve">
<g>
	<path fill="none" stroke="#000000" stroke-width="0.75" stroke-miterlimit="10" d="M621.738,71.398v407.31H18.423V71.398
		 M51.75,71.398H18.423v407.31h603.315V71.398h-34.391 M53.047,25.964L40.441,458.22c0,0,220.385-37.751,279.124,0V60.589
		C319.565,60.589,218.818-5.5,53.047,25.964 M53.047,25.964L40.441,458.22c0,0,220.385-37.751,279.124,0V60.589
		C319.565,60.589,218.818-5.5,53.047,25.964z M586.049,25.964C420.278-5.5,319.565,60.589,319.565,60.589V458.22
		c58.705-37.751,279.09,0,279.09,0L586.049,25.964 M319.565,60.589V458.22c58.705-37.751,279.09,0,279.09,0L586.049,25.964
		C420.278-5.5,319.565,60.589,319.565,60.589z M275.461,107.287C231.424,82.075,91.363,96.277,91.363,96.277 M275.461,107.287
		C231.424,82.075,91.363,96.277,91.363,96.277 M275.461,151.889C231.424,126.711,91.363,140.88,91.363,140.88 M275.461,151.889
		C231.424,126.711,91.363,140.88,91.363,140.88 M275.461,196.492c-44.037-25.212-184.098-11.009-184.098-11.009 M275.461,196.492
		c-44.037-25.212-184.098-11.009-184.098-11.009 M275.461,241.094c-44.037-25.178-184.098-11.009-184.098-11.009 M275.461,241.094
		c-44.037-25.178-184.098-11.009-184.098-11.009 M275.461,285.697c-44.037-25.145-184.098-11.009-184.098-11.009 M275.461,285.697
		c-44.037-25.145-184.098-11.009-184.098-11.009 M544.606,96.277c0,0-140.061-14.202-184.131,11.009 M544.606,96.277
		c0,0-140.061-14.202-184.131,11.009 M544.606,140.88c0,0-140.061-14.169-184.131,11.009 M544.606,140.88
		c0,0-140.061-14.169-184.131,11.009 M544.606,185.482c0,0-140.061-14.202-184.131,11.009 M544.606,185.482
		c0,0-140.061-14.202-184.131,11.009 M544.606,230.085c0,0-140.061-14.169-184.131,11.009 M544.606,230.085
		c0,0-140.061-14.169-184.131,11.009 M544.606,274.688c0,0-140.061-14.136-184.131,11.009 M544.606,274.688
		c0,0-140.061-14.136-184.131,11.009 M544.606,319.323c0,0-140.061-14.169-184.131,11.009 M544.606,319.323
		c0,0-140.061-14.169-184.131,11.009 M544.606,363.926c0,0-140.061-14.136-184.131,11.009 M544.606,363.926
		c0,0-140.061-14.136-184.131,11.009"/>
</g>
</svg>
