<?xml version="1.0" encoding="utf-8"?>
<!-- Generator: Adobe Illustrator 17.0.0, SVG Export Plug-In . SVG Version: 6.00 Build 0)  -->
<!DOCTYPE svg PUBLIC "-//W3C//DTD SVG 1.1//EN" "http://www.w3.org/Graphics/SVG/1.1/DTD/svg11.dtd">
<svg version="1.1" id="Layer_1" xmlns="http://www.w3.org/2000/svg" xmlns:xlink="http://www.w3.org/1999/xlink" x="0px" y="0px"
	 width="640px" height="640px" viewBox="0 0 640 640" enable-background="new 0 0 640 640" xml:space="preserve">
<path fill="#010101" d="M283.266,18.305C155.685,22.819,51.014,106.198,5.6,232.566c-7.424,20.655-2.247,31.898,4.634,23.818
	c19.153-22.486,45.408-36.677,74.629-36.677c34.808,0,65.646,19.929,84.698,50.622c9.93,14.494,13.162,15.428,22.215,0.36
	c23.042-38.28,51.55-50.338,91.497-51.032c0,134.139,0.069,298.025,0.069,324.582c0,32.612-22.505,64.756-50.275,64.756
	c-27.763,0-50.287-22.524-50.287-55.129h-27.883c0,50.698,34.992,82.217,78.171,82.217s78.196-41.14,78.196-91.844
	c0-33.312-0.208-190.923-0.316-324.595c38.495,0.568,67.483,11.331,91.377,51.045c9.071,15.069,12.278,14.134,22.215-0.36
	c19.064-30.686,49.909-50.622,84.717-50.622c29.196,0,55.476,14.185,74.623,36.677c6.887,8.08,12.057-3.163,4.634-23.818
	C543.117,106.286,438.49,22.939,311.01,18.318c0-22.038,0,1.364,0-13.509h-27.814L283.266,18.305z"/>
<path fill="#010101" d="M272.63,112.593"/>
</svg>
