<?xml version="1.0" encoding="utf-8"?>
<!-- Generator: Adobe Illustrator 17.0.0, SVG Export Plug-In . SVG Version: 6.00 Build 0)  -->
<!DOCTYPE svg PUBLIC "-//W3C//DTD SVG 1.1//EN" "http://www.w3.org/Graphics/SVG/1.1/DTD/svg11.dtd">
<svg version="1.1" id="Layer_1" xmlns="http://www.w3.org/2000/svg" xmlns:xlink="http://www.w3.org/1999/xlink" x="0px" y="0px"
	 width="640px" height="640px" viewBox="0 0 640 640" enable-background="new 0 0 640 640" xml:space="preserve">
<g>
	<path fill="none" d="M437.118,187.303c37.819,0,68.269-30.45,68.269-68.269s-30.45-68.272-68.269-68.272
		c-16.128,0-30.681,5.554-42.364,14.935c2.172,7.623,3.356,15.773,3.356,24.076c0,22.475-8.588,42.965-22.555,58.518
		C386.486,171.344,409.787,187.303,437.118,187.303z"/>
	<path fill="none" d="M310.333,158.042c37.818,0,68.269-30.447,68.269-68.269c0-37.819-30.45-68.269-68.269-68.269
		c-37.819,0-68.269,30.45-68.269,68.269C242.064,127.595,272.515,158.042,310.333,158.042z"/>
	<path fill="none" d="M183.546,187.303c27.332,0,50.635-15.959,61.567-39.011c-13.965-15.554-22.552-36.043-22.552-58.518
		c0-8.303,1.181-16.454,3.35-24.076c-11.68-9.38-26.236-14.935-42.364-14.935c-37.819,0-68.266,30.453-68.266,68.272
		S145.727,187.303,183.546,187.303z"/>
	<path fill="none" d="M187.813,249.476c1.841-1.19,3.879-2.219,5.791-3.353c-3.291-0.136-6.697-0.305-10.059-0.305
		c-44.202,0-84.065,11.695-112.158,29.867c-28.085,18.173-43.885,42.101-43.885,66.748v100.267
		c34.386,9.606,69.192,14.115,107.281,16.158V332.677C134.784,299.691,155.969,270.087,187.813,249.476z"/>
	<path fill="none" d="M549.272,275.686c-28.083-18.172-67.949-29.867-112.154-29.867c-3.356,0-6.765,0.169-10.056,0.305
		c1.912,1.133,3.954,2.163,5.788,3.353c31.847,20.611,53.029,50.215,53.029,83.201v126.182
		c38.091-2.042,72.897-6.552,107.284-16.158V342.434C593.163,317.786,577.367,293.858,549.272,275.686z"/>
	<path fill="none" d="M422.493,265.935c-28.095-18.179-67.961-29.871-112.16-29.871s-84.069,11.692-112.157,29.871
		c-28.089,18.175-43.888,42.1-43.888,66.742v266.069c43.098,12.08,86.364,16.441,136.538,17.678c0.109,0.006,0.198-0.006,0.307,0
		h38.399h0.308c50.17-1.237,93.44-5.599,136.538-17.678V332.677C466.378,308.036,450.576,284.111,422.493,265.935z"/>
	<path fill="#010101" d="M183.546,206.807c32.957,0,61.815-18.122,76.803-45.107c14.216,9.922,31.391,15.85,49.984,15.85
		c18.59,0,35.765-5.928,49.981-15.85c14.991,26.985,43.849,45.107,76.803,45.107c36.41,0,67.808-22.262,81.071-53.944l5.788-21.031
		c0.627-4.205,0.917-8.425,0.917-12.799c0-6.809-0.959-13.444-2.438-19.812c-5.084-38.497-43.885-57.297-43.885-57.297
		c-12.382-6.688-26.438-10.668-41.453-10.668c-18.678,0-35.8,6.158-49.981,16.154C372.151,20.38,343.34,2,310.333,2
		c-33.007,0-61.818,18.38-76.804,45.412c-14.18-9.996-31.299-16.154-49.984-16.154c-15.012,0-31.173,3.98-43.551,10.668
		C115.279,57.228,106.1,70.269,98.211,99.222c-1.476,6.368-2.438,13.003-2.438,19.812c0,4.374,0.293,8.594,0.915,12.799
		c0,0,3.453,16.459,5.791,21.031C115.741,184.545,147.139,206.807,183.546,206.807z M495.633,21.504 M394.754,65.697
		c11.683-9.38,26.236-14.935,42.364-14.935c37.819,0,68.269,30.453,68.269,68.272s-30.45,68.269-68.269,68.269
		c-27.331,0-50.632-15.959-61.564-39.011c13.968-15.554,22.555-36.043,22.555-58.518C398.109,81.47,396.926,73.32,394.754,65.697z
		 M310.333,21.504c37.818,0,68.269,30.45,68.269,68.269c0,37.822-30.45,68.269-68.269,68.269c-37.819,0-68.269-30.447-68.269-68.269
		C242.064,51.954,272.515,21.504,310.333,21.504z M183.546,50.762c16.128,0,30.684,5.554,42.364,14.935
		c-2.169,7.623-3.35,15.773-3.35,24.076c0,22.475,8.588,42.965,22.552,58.518c-10.931,23.052-34.235,39.011-61.567,39.011
		c-37.819,0-68.266-30.45-68.266-68.269S145.727,50.762,183.546,50.762z"/>
	<path fill="#010101" d="M612.67,342.434c0-32.989-21.188-62.294-53.029-82.899c-31.847-20.602-74.874-33.223-122.523-33.223
		c-15.376,0-30.142,1.482-44.193,3.965c-24.632-8.697-52.698-13.716-82.591-13.716c-29.894,0-57.962,5.019-82.595,13.716
		c-14.045-2.483-28.814-3.965-44.193-3.965c-47.649,0-90.67,12.621-122.517,33.223c-31.847,20.605-53.029,49.91-53.029,82.899
		v18.895c0,0,0.012,16.08,0,19.507v69.791c-0.042,4.362,2.82,8.22,7.007,9.451c38.964,11.737,77.904,16.187,119.777,18.282v128.312
		c0.095,4.25,2.93,7.948,7.01,9.144c47.901,14.435,94.994,18.803,148.73,20.117c0.101,0,0.201,0,0.302,0h39.014
		c0.101,0,0.201,0,0.302,0c53.733-1.314,100.826-5.682,148.73-20.117c4.077-1.196,6.913-4.894,7.007-9.144V478.359
		c41.873-2.095,80.816-6.545,119.777-18.282c4.19-1.231,7.049-5.09,7.013-9.451v-69.791v-19.507V342.434z M134.784,332.677v126.182
		c-38.088-2.042-72.894-6.552-107.281-16.158V342.434c0-24.647,15.8-48.575,43.885-66.748
		c28.092-18.172,67.955-29.867,112.158-29.867c3.362,0,6.768,0.169,10.059,0.305c-1.912,1.133-3.951,2.163-5.791,3.353
		C155.969,270.087,134.784,299.691,134.784,332.677z M466.378,598.746c-43.098,12.08-86.367,16.441-136.538,17.678h-0.308h-38.399
		c-0.109-0.006-0.198,0.006-0.307,0c-50.174-1.237-93.44-5.599-136.538-17.678V332.677c0-24.641,15.799-48.566,43.888-66.742
		c28.088-18.179,67.958-29.871,112.157-29.871s84.065,11.692,112.16,29.871c28.083,18.175,43.885,42.1,43.885,66.742V598.746z
		 M593.163,442.701c-34.387,9.606-69.192,14.115-107.284,16.158V332.677c0-32.986-21.182-62.59-53.029-83.201
		c-1.835-1.19-3.876-2.219-5.788-3.353c3.291-0.136,6.7-0.305,10.056-0.305c44.205,0,84.072,11.695,112.154,29.867
		c28.095,18.173,43.891,42.101,43.891,66.748V442.701z"/>
</g>
</svg>
