<?xml version="1.0" encoding="utf-8"?>
<!-- Generator: Adobe Illustrator 17.0.0, SVG Export Plug-In . SVG Version: 6.00 Build 0)  -->
<!DOCTYPE svg PUBLIC "-//W3C//DTD SVG 1.1//EN" "http://www.w3.org/Graphics/SVG/1.1/DTD/svg11.dtd">
<svg version="1.1" id="Layer_1" xmlns="http://www.w3.org/2000/svg" xmlns:xlink="http://www.w3.org/1999/xlink" x="0px" y="0px"
	 width="640px" height="640px" viewBox="0 0 640 640" enable-background="new 0 0 640 640" xml:space="preserve">
<g>
	<path d="M285.208,96.255L285.208,96.255c3.019,1.51,4.529,1.51,7.546,3.017C289.737,97.765,288.227,97.765,285.208,96.255z
		 M313.881,108.329c13.583,7.544,27.161,15.088,39.234,25.651C341.042,123.417,328.973,114.363,313.881,108.329z"/>
	<path d="M446.676,562.551h190.142v-15.093c0-6.034-4.529-141.849-84.508-205.229c33.2-34.707,54.327-82.998,54.327-135.815
		c0-108.649-87.527-196.175-196.176-196.175c-61.871,0-120.724,30.183-158.451,79.98c-7.546-1.51-16.6-1.51-25.654-1.51
		c-108.651,0-196.176,87.525-196.176,196.176c0,51.305,19.619,98.088,52.817,132.797C3.017,481.063,0,616.873,0,622.912V638h452.71
		v-15.088C452.71,619.892,452.71,595.746,446.676,562.551z M605.127,532.37H439.132c-12.073-40.744-31.69-84.507-69.415-113.178
		c6.034-6.038,10.564-12.073,15.088-18.112c7.549,1.51,16.602,1.51,24.146,1.51c43.759,0,86.013-15.092,117.703-39.234
		C585.51,404.099,600.603,496.151,605.127,532.37z M285.208,96.255c31.693-36.217,76.961-57.344,125.253-57.344
		c92.051,0,165.995,73.942,165.995,165.993c0,90.544-73.944,165.995-165.995,165.995c-3.019,0-4.529,0-7.549,0c0,0,0,0,0-1.51
		c1.51-3.015,3.02-6.034,4.529-9.054c1.51-3.015,3.019-6.034,3.019-9.054c3.015-7.544,4.525-15.092,7.544-22.632
		c0-3.019,1.51-4.529,1.51-7.549c0-1.51,0-3.017,1.51-4.527c0-1.508,0-4.527,1.51-7.547c0-1.507,0-3.017,0-4.524
		c0-3.02,0-4.529,0-7.546c0-4.527,0-7.546,0-12.073c0-9.054,0-18.108-1.51-27.161c0-3.02,0-6.039-1.51-9.056
		c0-3.017-1.51-6.037-1.51-9.054c0-3.017-1.51-4.527-1.51-7.544c-1.51-6.039-3.019-10.564-4.525-16.602
		c-1.51-3.015-1.51-4.525-3.019-7.544c-6.039-15.091-13.583-28.671-22.636-40.744c-3.02-4.527-6.034-7.547-9.054-12.073
		c-3.019-3.017-7.544-7.544-10.563-10.564c-3.02-3.017-7.544-7.544-12.073-10.563c-12.073-9.054-24.142-18.108-39.234-25.651
		c-4.529-1.51-9.054-4.529-15.093-6.039c-3.015-1.507-4.525-1.507-7.544-3.017C289.737,97.765,288.227,97.765,285.208,96.255
		L285.208,96.255z M61.871,283.378c0-92.054,73.942-165.995,165.993-165.995c10.565,0,19.619,1.507,28.675,3.017
		c78.468,13.581,135.815,82.998,135.815,162.978c0,33.198-9.059,63.376-27.166,90.541c-30.181,46.783-82.996,73.944-138.832,73.944
		c-4.527,0-9.054,0-13.581,0C128.268,441.829,61.871,369.39,61.871,283.378z M31.69,607.819
		c3.017-36.215,16.6-128.266,73.944-170.52c28.671,24.147,64.888,39.234,105.632,42.254c6.037,0,10.564,0,16.598,0
		c43.763,0,86.017-15.092,119.217-40.744c58.851,42.254,72.434,132.796,75.454,169.01H31.69z"/>
</g>
</svg>
