<?xml version="1.0" encoding="utf-8"?>
<!-- Generator: Adobe Illustrator 17.0.0, SVG Export Plug-In . SVG Version: 6.00 Build 0)  -->
<!DOCTYPE svg PUBLIC "-//W3C//DTD SVG 1.1//EN" "http://www.w3.org/Graphics/SVG/1.1/DTD/svg11.dtd">
<svg version="1.1" id="Layer_1" xmlns="http://www.w3.org/2000/svg" xmlns:xlink="http://www.w3.org/1999/xlink" x="0px" y="0px"
	 width="640px" height="640px" viewBox="0 0 640 640" enable-background="new 0 0 640 640" xml:space="preserve">
<g>
	<path fill="#010101" d="M491.431,1.159H144.913c-33.185,0-60.181,26.99-60.181,60.188v518.156
		c0,33.185,26.996,60.181,60.181,60.181h346.518c33.196,0,60.181-26.996,60.181-60.181V61.347
		C551.611,28.149,524.627,1.159,491.431,1.159z M530.667,579.503c0,21.633-17.592,39.225-39.237,39.225H144.913
		c-21.627,0-39.225-17.592-39.225-39.225V61.347c0-21.628,17.598-39.237,39.225-39.237h346.518
		c21.645,0,39.237,17.608,39.237,39.237V579.503z"/>
	<path fill="#010101" d="M452.32,330.991H185.627c-5.777,0-10.473,4.696-10.473,10.472c0,5.776,4.696,10.473,10.473,10.473h266.705
		c5.776,0,10.46-4.697,10.46-10.473C462.792,335.688,458.107,330.991,452.32,330.991z"/>
	<path fill="#010101" d="M452.32,382.773H185.627c-5.777,0-10.473,4.69-10.473,10.472c0,5.782,4.696,10.473,10.473,10.473h266.705
		c5.776,0,10.46-4.692,10.46-10.473C462.792,387.463,458.107,382.773,452.32,382.773z"/>
	<path fill="#010101" d="M452.32,434.549H185.627c-5.777,0-10.473,4.697-10.473,10.479c0,5.776,4.696,10.472,10.473,10.472h266.705
		c5.776,0,10.46-4.696,10.46-10.472C462.792,439.246,458.107,434.549,452.32,434.549z"/>
	<path fill="#010101" d="M452.32,538.118H332.037c-5.788,0-10.472,4.692-10.472,10.467c0,5.782,4.685,10.472,10.472,10.472H452.32
		c5.788,0,10.472-4.69,10.472-10.472C462.792,542.809,458.107,538.118,452.32,538.118z"/>
	<path fill="#010101" d="M318.976,286.192c43.284,0,78.501-35.229,78.501-78.514v-81.442c0-4.605-3.008-8.669-7.417-10.006
		l-67.933-20.687c-0.028,0-0.062-0.018-0.098-0.034h-0.006c0,0-0.016,0-0.028,0c-0.424-0.133-0.866-0.231-1.315-0.305
		c-0.115-0.018-0.219-0.029-0.333-0.046c-0.448-0.058-0.89-0.104-1.362-0.104c-0.011,0-0.04,0-0.046,0
		c-0.464,0-0.912,0.046-1.355,0.104c-0.115,0.016-0.229,0.028-0.339,0.046c-0.442,0.074-0.896,0.172-1.326,0.305
		c0,0-0.006,0-0.012,0h-0.016c-0.029,0.016-0.058,0.034-0.098,0.034l-67.927,20.687c-4.415,1.337-7.423,5.402-7.423,10.006v81.454
		C240.462,250.963,275.679,286.192,318.976,286.192z M329.443,264.277v-68.535h47.091v11.936
		C376.534,235.839,356.197,259.333,329.443,264.277z M376.534,174.808h-47.091v-55.135l47.091,14.337V174.808z M308.498,119.673
		v55.135h-47.085v-40.804L308.498,119.673z M261.413,195.741h47.085v68.535c-26.755-4.943-47.085-28.438-47.085-56.587V195.741z"/>
</g>
</svg>
