<?xml version="1.0" encoding="utf-8"?>
<!-- Generator: Adobe Illustrator 17.0.0, SVG Export Plug-In . SVG Version: 6.00 Build 0)  -->
<!DOCTYPE svg PUBLIC "-//W3C//DTD SVG 1.1//EN" "http://www.w3.org/Graphics/SVG/1.1/DTD/svg11.dtd">
<svg version="1.1" id="Layer_1" xmlns="http://www.w3.org/2000/svg" xmlns:xlink="http://www.w3.org/1999/xlink" x="0px" y="0px"
	 width="640px" height="640px" viewBox="0 0 640 640" enable-background="new 0 0 640 640" xml:space="preserve">
<g>
	<g>
		<path fill="none" stroke="#010101" stroke-width="2" stroke-linecap="round" stroke-linejoin="round" stroke-miterlimit="10" d="
			M280.926,509.425l-129.127,78.24c0,0-38.35,17.554-66.583,2.799c-28.218-14.76-30.071-33.126-30.071-42.456l0.014-392.733"/>
		<path fill="none" stroke="#010101" stroke-width="2" stroke-linecap="round" stroke-linejoin="round" stroke-miterlimit="10" d="
			M298.005,5.143L63.203,141.038c0,0-10.487,8.196-7.525,17.484c1.772,5.565,8.387,11.522,25,16.341
			c44.308,12.819,82.159,1.157,95.888-8.173c13.734-9.329,227.226-135.521,227.226-135.521v79.551"/>
		<path fill="none" stroke="#010101" stroke-width="2" stroke-linecap="round" stroke-linejoin="round" stroke-miterlimit="10" d="
			M290.773,12.877c0,0-12.52,38.076,99.919,26.059"/>
	</g>
	<g>
		<path fill="none" stroke="#010101" stroke-width="2" stroke-linecap="round" stroke-linejoin="round" stroke-miterlimit="10" d="
			M523.774,41.287L288.991,177.192c0,0-10.487,8.201-7.529,17.47c1.773,5.579,8.402,11.527,25,16.341
			c44.308,12.834,82.15,1.171,95.893-8.169c13.734-9.329,227.23-135.512,227.23-135.512v405.893L377.583,623.824
			c0,0-38.35,17.526-66.583,2.766c-28.218-14.741-30.075-33.112-30.075-42.428l0.018-392.748"/>
		<path fill="none" stroke="#010101" stroke-width="2" stroke-linecap="round" stroke-linejoin="round" stroke-miterlimit="10" d="
			M516.544,49.016c0,0-12.521,38.095,99.914,26.064"/>
	</g>
	
		<line fill="none" stroke="#010101" stroke-width="2" stroke-linecap="round" stroke-linejoin="round" stroke-miterlimit="10" x1="390.692" y1="258.571" x2="390.692" y2="564.947"/>
	
		<line fill="none" stroke="#010101" stroke-width="2" stroke-linecap="round" stroke-linejoin="round" stroke-miterlimit="10" x1="168.043" y1="236.208" x2="168.043" y2="535.255"/>
</g>
</svg>
