<?xml version="1.0" encoding="utf-8"?>
<!-- Generator: Adobe Illustrator 17.0.0, SVG Export Plug-In . SVG Version: 6.00 Build 0)  -->
<!DOCTYPE svg PUBLIC "-//W3C//DTD SVG 1.1//EN" "http://www.w3.org/Graphics/SVG/1.1/DTD/svg11.dtd">
<svg version="1.1" id="Layer_1" xmlns="http://www.w3.org/2000/svg" xmlns:xlink="http://www.w3.org/1999/xlink" x="0px" y="0px"
	 width="640px" height="640px" viewBox="0 0 640 640" enable-background="new 0 0 640 640" xml:space="preserve">
<path d="M598.057,351.065c0.593-5.344,0.949-10.618,0.949-15.972c0-56.168-30.026-107.32-79.093-145.525
	c8.117-33.768,46.36-56.753,46.36-56.753c-41.659-21.828-77.691,10.777-92.465,27.577c-48.476-24.819-107.699-39.448-171.661-39.448
	c-80.911,0-154.196,23.399-207.729,61.266C73.46,149.696,43.375,84.075,118.637,55.659c0,0-68.546-12.04-90.651,57.839
	c-13.787,43.724,8.751,80.672,27.635,102.324C23.898,249.916,5.329,290.885,5.329,335.093c0,73.9,51.874,139.017,130.73,177.547
	l-45.334,75.567h126.64l8.653-46.133c24.336,4.681,49.819,7.189,76.129,7.189c18.411,0,36.388-1.264,53.848-3.594l7.941,42.539
	h126.622l-40.397-67.447c58.175-24.249,104.043-62.364,128.657-108.093l42.114,15.725l14.756-76.408L598.057,351.065z
	 M488.544,348.646c-17.582,0-31.843-20.07-31.843-44.724c0-24.662,14.261-44.722,31.843-44.722c17.58,0,31.843,20.06,31.843,44.722
	C520.386,328.576,506.124,348.646,488.544,348.646z"/>
</svg>
