<?xml version="1.0" encoding="utf-8"?>
<!-- Generator: Adobe Illustrator 17.0.0, SVG Export Plug-In . SVG Version: 6.00 Build 0)  -->
<!DOCTYPE svg PUBLIC "-//W3C//DTD SVG 1.1//EN" "http://www.w3.org/Graphics/SVG/1.1/DTD/svg11.dtd">
<svg version="1.1" id="Layer_1" xmlns="http://www.w3.org/2000/svg" xmlns:xlink="http://www.w3.org/1999/xlink" x="0px" y="0px"
	 width="640px" height="640px" viewBox="0 0 640 640" enable-background="new 0 0 640 640" xml:space="preserve">
<g>
	<path d="M431.528,460.583L154.995,184.011l2.862-6.195c14.742-31.798,38.267-63.987,69.868-95.55
		C322.609-12.616,468.266-21.32,552.485,62.82c61.909,62.027,75.593,159.066,34.856,247.284l-17.761-8.194
		c37.287-80.69,25.171-169.143-30.935-225.249c-76.573-76.573-209.84-67.83-297.117,19.408
		c-27.877,27.916-49.049,56.106-63.007,83.866L435.606,436.98c16.781-8.508,33.836-19.761,50.735-33.483l12.311,15.213
		c-20.231,16.389-40.698,29.523-60.89,38.973L431.528,460.583z"/>
	<path d="M356.057,477.055L356.057,477.055c-51.598,0-101.352-23.564-147.774-69.986c-70.064-70.064-87.512-149.343-50.46-229.248
		l5.92-12.664l286.57,286.609l-12.547,5.92C410.399,470.546,382.915,477.055,356.057,477.055 M170.055,199.11
		c-26.23,68.065-8.743,133.346,52.068,194.118c42.619,42.619,87.669,64.262,133.934,64.262c19.8,0,40.07-4.038,60.458-11.958
		L170.055,199.11z"/>
	<path d="M91.236,597.387l-73.319-73.279l167.496-167.535l73.319,73.279L91.236,597.387z M45.558,524.108l45.677,45.638
		l139.815-139.894l-45.638-45.638L45.558,524.108z"/>
	<path d="M526.274,432.267c-46.108,0-83.591-37.522-83.591-83.63c0-46.069,37.483-83.591,83.591-83.591
		c46.108,0,83.591,37.522,83.591,83.591C609.865,394.746,572.383,432.267,526.274,432.267 M526.274,284.572
		c-35.326,0-64.066,28.739-64.066,64.066s28.739,64.066,64.066,64.066s64.066-28.739,64.066-64.066S561.6,284.572,526.274,284.572"
		/>
</g>
</svg>
