<?xml version="1.0" encoding="utf-8"?>
<!-- Generator: Adobe Illustrator 17.0.0, SVG Export Plug-In . SVG Version: 6.00 Build 0)  -->
<!DOCTYPE svg PUBLIC "-//W3C//DTD SVG 1.1//EN" "http://www.w3.org/Graphics/SVG/1.1/DTD/svg11.dtd">
<svg version="1.1" id="Layer_1" xmlns="http://www.w3.org/2000/svg" xmlns:xlink="http://www.w3.org/1999/xlink" x="0px" y="0px"
	 width="640px" height="640px" viewBox="0 0 640 640" enable-background="new 0 0 640 640" xml:space="preserve">
<path d="M623.36,387.168c-12.513-12.342-40.291-18.883-82.618-19.456c-28.61-0.288-63.106,2.236-99.321,7.288
	c-16.242-9.356-33-19.515-46.089-31.796c-35.295-33.003-64.796-78.745-83.162-129.139c1.205-4.705,2.21-8.836,3.212-13.027
	c0,0,19.859-113.009,14.608-151.234c-0.717-5.222-1.175-6.773-2.583-10.846l-1.751-4.42c-5.392-12.513-16.012-25.713-32.657-24.966
	l-9.727-0.347h-0.259c-18.54,0-33.691,9.471-37.652,23.647c-12.051,44.481,0.373,111.058,22.959,197.209l-5.798,14.061
	c-16.186,39.371-36.389,79.03-54.238,114.041l-2.354,4.534c-18.766,36.732-35.813,67.955-51.252,94.414l-15.957,8.437
	c-1.175,0.632-28.525,15.096-34.952,18.942c-54.411,32.483-90.456,69.389-96.424,98.66c-1.892,9.354-0.488,21.293,9.242,26.803
	l15.381,7.805c6.715,3.329,13.776,5.051,21.008,5.051c38.739,0,83.764-48.269,145.722-156.456
	c71.513-23.303,153.015-42.701,224.414-53.321c54.467,30.649,121.331,51.884,163.629,51.884c7.461,0,13.947-0.688,19.227-2.122
	c8.093-2.125,14.922-6.715,19.083-13.03c8.178-12.339,9.844-29.327,7.634-46.718C631.97,397.959,627.838,391.588,623.36,387.168z
	 M44.482,593.443c7.058-19.342,35.066-57.567,76.421-91.428c2.583-2.125,8.98-8.152,14.893-13.717
	C92.522,557.283,63.535,584.777,44.482,593.443z M289.498,29.257c12.454,0,19.512,31.393,20.144,60.779
	c0.576,29.445-6.312,50.106-14.863,65.431c-7.061-22.671-10.505-58.313-10.505-81.672C284.273,73.795,283.785,29.257,289.498,29.257
	z M216.377,431.303c8.695-15.554,17.734-31.91,26.976-49.301c22.498-42.53,36.703-75.819,47.291-103.139
	c21.037,38.284,47.238,70.826,78.058,96.882c3.847,3.215,7.864,6.485,12.169,9.756C318.193,397.9,264.1,412.937,216.377,431.303z
	 M611.309,427.745c-3.791,2.413-14.752,3.788-21.754,3.788c-22.671,0-50.735-10.388-90.109-27.261
	c15.151-1.09,28.983-1.663,41.411-1.663c22.756,0,29.5-0.059,51.74,5.566C614.864,413.857,615.152,425.335,611.309,427.745z"/>
</svg>
